<mxfile host="65bd71144e">
    <diagram id="dti3VlGo0YUEDV2RVNbM" name="Page-1">
        <mxGraphModel dx="368" dy="344" grid="1" gridSize="5" guides="1" tooltips="1" connect="1" arrows="1" fold="1" page="1" pageScale="1" pageWidth="2336" pageHeight="1654" background="#FFFFFF" math="0" shadow="0">
            <root>
                <mxCell id="0"/>
                <mxCell id="1" parent="0"/>
                <mxCell id="505" style="edgeStyle=orthogonalEdgeStyle;jumpStyle=arc;html=1;exitX=0.5;exitY=0;exitDx=0;exitDy=0;startArrow=none;startFill=0;endArrow=classic;endFill=1;fillColor=#0050ef;strokeColor=#001DBC;strokeWidth=4;rounded=0;" edge="1" parent="1" source="461">
                    <mxGeometry relative="1" as="geometry">
                        <mxPoint x="1350" y="420" as="targetPoint"/>
                        <Array as="points">
                            <mxPoint x="1335" y="520"/>
                            <mxPoint x="1350" y="520"/>
                        </Array>
                    </mxGeometry>
                </mxCell>
                <mxCell id="348" style="edgeStyle=orthogonalEdgeStyle;rounded=0;html=1;entryX=0.5;entryY=1;entryDx=0;entryDy=0;startArrow=none;startFill=0;endArrow=classic;endFill=1;strokeWidth=4;exitX=0;exitY=0.5;exitDx=0;exitDy=0;fontColor=#000000;jumpStyle=arc;" parent="1" source="345" target="175" edge="1">
                    <mxGeometry relative="1" as="geometry">
                        <Array as="points">
                            <mxPoint x="1010" y="655"/>
                        </Array>
                    </mxGeometry>
                </mxCell>
                <mxCell id="349" style="edgeStyle=orthogonalEdgeStyle;rounded=0;html=1;startArrow=classic;startFill=1;endArrow=none;endFill=0;strokeWidth=4;entryX=0;entryY=0.5;entryDx=0;entryDy=0;fontColor=#000000;jumpStyle=arc;" parent="1" source="181" target="346" edge="1">
                    <mxGeometry relative="1" as="geometry">
                        <mxPoint x="1565" y="1260" as="targetPoint"/>
                        <Array as="points">
                            <mxPoint x="1130" y="580"/>
                        </Array>
                    </mxGeometry>
                </mxCell>
                <mxCell id="427" value="" style="edgeStyle=orthogonalEdgeStyle;rounded=0;jumpStyle=arc;html=1;entryDx=0;entryDy=0;entryPerimeter=0;strokeColor=#6F0000;strokeWidth=3;fontSize=50;fontColor=#000000;startArrow=classic;startFill=1;endArrow=none;endFill=0;fillColor=#a20025;" parent="1" source="30" target="426" edge="1">
                    <mxGeometry relative="1" as="geometry">
                        <mxPoint x="1335" y="1044.9999999999998" as="sourcePoint"/>
                        <mxPoint x="1605" y="817.5" as="targetPoint"/>
                    </mxGeometry>
                </mxCell>
                <mxCell id="390" style="edgeStyle=orthogonalEdgeStyle;rounded=0;html=1;startArrow=none;startFill=0;endArrow=classic;endFill=1;strokeWidth=4;entryX=0;entryY=0.75;entryDx=0;entryDy=0;fontColor=#000000;jumpStyle=arc;" parent="1" source="157" target="32" edge="1">
                    <mxGeometry relative="1" as="geometry">
                        <mxPoint x="950" y="420" as="sourcePoint"/>
                        <mxPoint x="1010" y="1158" as="targetPoint"/>
                        <Array as="points">
                            <mxPoint x="950" y="1158"/>
                        </Array>
                    </mxGeometry>
                </mxCell>
                <mxCell id="83" value="" style="group;fontColor=#000000;" parent="1" vertex="1" connectable="0">
                    <mxGeometry x="720" y="260" width="990" height="225.70999999999998" as="geometry"/>
                </mxCell>
                <mxCell id="100" style="edgeStyle=orthogonalEdgeStyle;html=1;startArrow=classic;startFill=1;endArrow=none;endFill=0;rounded=0;strokeWidth=7;fillColor=#e51400;strokeColor=#B20000;entryX=0.363;entryY=0.374;entryDx=0;entryDy=0;fontColor=#000000;jumpStyle=arc;entryPerimeter=0;" parent="1" source="91" target="496" edge="1">
                    <mxGeometry relative="1" as="geometry">
                        <mxPoint x="1540" y="290" as="targetPoint"/>
                        <Array as="points">
                            <mxPoint x="1670" y="335"/>
                            <mxPoint x="1670" y="335"/>
                        </Array>
                    </mxGeometry>
                </mxCell>
                <mxCell id="91" value="Battery Level Indicator" style="rounded=0;whiteSpace=wrap;fontColor=#000000;" parent="1" vertex="1">
                    <mxGeometry x="1610" y="365" width="120" height="60" as="geometry"/>
                </mxCell>
                <mxCell id="109" value="" style="group;fontColor=#000000;" parent="1" vertex="1" connectable="0">
                    <mxGeometry x="1105" y="1015" width="315" height="420" as="geometry"/>
                </mxCell>
                <mxCell id="14" style="edgeStyle=orthogonalEdgeStyle;html=1;exitX=0;exitY=0.5;exitDx=0;exitDy=0;exitPerimeter=0;endArrow=oval;endFill=1;rounded=0;strokeWidth=4;fontColor=#000000;jumpStyle=arc;" parent="109" source="2" edge="1">
                    <mxGeometry relative="1" as="geometry">
                        <Array as="points">
                            <mxPoint x="285" y="250"/>
                            <mxPoint x="200" y="250"/>
                        </Array>
                        <mxPoint x="200" y="250" as="targetPoint"/>
                    </mxGeometry>
                </mxCell>
                <mxCell id="2" value="M" style="shape=mxgraph.electrical.electro-mechanical.motor_2;html=1;shadow=0;dashed=0;align=center;fontSize=30;strokeWidth=1;direction=south;fontColor=#000000;" parent="109" vertex="1">
                    <mxGeometry x="255" y="260" width="60" height="100" as="geometry"/>
                </mxCell>
                <mxCell id="101" style="edgeStyle=orthogonalEdgeStyle;rounded=0;html=1;exitX=1;exitY=0.5;exitDx=0;exitDy=0;exitPerimeter=0;startArrow=none;startFill=0;endArrow=oval;endFill=1;strokeWidth=4;fontColor=#000000;jumpStyle=arc;" parent="109" source="3" edge="1">
                    <mxGeometry relative="1" as="geometry">
                        <mxPoint x="199.93827160493834" y="380" as="targetPoint"/>
                    </mxGeometry>
                </mxCell>
                <mxCell id="3" value="M" style="shape=mxgraph.electrical.electro-mechanical.motor_2;html=1;shadow=0;dashed=0;align=center;fontSize=30;strokeWidth=1;direction=south;fontColor=#000000;" parent="109" vertex="1">
                    <mxGeometry x="170" y="260" width="60" height="100" as="geometry"/>
                </mxCell>
                <mxCell id="4" value="M" style="shape=mxgraph.electrical.electro-mechanical.motor_2;html=1;shadow=0;dashed=0;align=center;fontSize=30;strokeWidth=1;direction=south;fontColor=#000000;" parent="109" vertex="1">
                    <mxGeometry y="260" width="60" height="100" as="geometry"/>
                </mxCell>
                <mxCell id="16" style="edgeStyle=orthogonalEdgeStyle;html=1;exitX=0;exitY=0.5;exitDx=0;exitDy=0;exitPerimeter=0;endArrow=oval;endFill=1;rounded=0;strokeWidth=4;fontColor=#000000;jumpStyle=arc;" parent="109" source="5" edge="1">
                    <mxGeometry relative="1" as="geometry">
                        <Array as="points">
                            <mxPoint x="115" y="250"/>
                            <mxPoint x="30" y="250"/>
                        </Array>
                        <mxPoint x="30" y="250" as="targetPoint"/>
                    </mxGeometry>
                </mxCell>
                <mxCell id="102" style="edgeStyle=orthogonalEdgeStyle;rounded=0;html=1;startArrow=none;startFill=0;endArrow=oval;endFill=1;strokeWidth=4;fontColor=#000000;jumpStyle=arc;" parent="109" source="5" edge="1">
                    <mxGeometry relative="1" as="geometry">
                        <mxPoint x="115" y="380" as="targetPoint"/>
                    </mxGeometry>
                </mxCell>
                <mxCell id="5" value="M" style="shape=mxgraph.electrical.electro-mechanical.motor_2;html=1;shadow=0;dashed=0;align=center;fontSize=30;strokeWidth=1;direction=south;fontColor=#000000;" parent="109" vertex="1">
                    <mxGeometry x="85" y="260" width="60" height="100" as="geometry"/>
                </mxCell>
                <mxCell id="9" style="edgeStyle=orthogonalEdgeStyle;html=1;entryX=0;entryY=0.5;entryDx=0;entryDy=0;entryPerimeter=0;endArrow=none;endFill=0;exitX=0.5;exitY=1;exitDx=0;exitDy=0;strokeWidth=4;fontColor=#000000;jumpStyle=arc;" parent="109" source="7" target="3" edge="1">
                    <mxGeometry relative="1" as="geometry"/>
                </mxCell>
                <mxCell id="10" value="" style="group;fontColor=#000000;" parent="109" vertex="1" connectable="0">
                    <mxGeometry width="230" height="230" as="geometry"/>
                </mxCell>
                <mxCell id="36" value="" style="group;fontColor=#000000;" parent="10" vertex="1" connectable="0">
                    <mxGeometry width="230" height="230" as="geometry"/>
                </mxCell>
                <mxCell id="6" value="&lt;div style=&quot;text-align: justify; font-size: 15px;&quot;&gt;&lt;span style=&quot;background-color: initial;&quot;&gt;&lt;font style=&quot;font-size: 15px;&quot;&gt;L298N&lt;/font&gt;&lt;/span&gt;&lt;/div&gt;&lt;div style=&quot;text-align: justify; font-size: 15px;&quot;&gt;&lt;span style=&quot;background-color: initial;&quot;&gt;&lt;font style=&quot;font-size: 15px;&quot;&gt;module&lt;/font&gt;&lt;/span&gt;&lt;/div&gt;" style="whiteSpace=wrap;html=1;aspect=fixed;align=center;fontColor=#000000;" parent="36" vertex="1">
                    <mxGeometry width="230" height="230" as="geometry"/>
                </mxCell>
                <mxCell id="7" value="Motor A&lt;br&gt;Output" style="rounded=0;whiteSpace=wrap;html=1;fontColor=#000000;" parent="36" vertex="1">
                    <mxGeometry x="170" y="170" width="60" height="60" as="geometry"/>
                </mxCell>
                <mxCell id="8" value="Motor B&lt;br&gt;Output" style="rounded=0;whiteSpace=wrap;html=1;fontColor=#000000;" parent="36" vertex="1">
                    <mxGeometry y="170" width="60" height="60" as="geometry"/>
                </mxCell>
                <mxCell id="23" value="Vin" style="rounded=0;whiteSpace=wrap;html=1;fontColor=#000000;" parent="36" vertex="1">
                    <mxGeometry width="60" height="60" as="geometry"/>
                </mxCell>
                <mxCell id="30" value="Vout &lt;br&gt;+5v" style="rounded=0;whiteSpace=wrap;html=1;fontColor=#000000;" parent="36" vertex="1">
                    <mxGeometry x="170" width="60" height="60" as="geometry"/>
                </mxCell>
                <mxCell id="32" value="&lt;div style=&quot;text-align: left;&quot;&gt;&lt;span style=&quot;background-color: initial;&quot;&gt;Terminal&amp;nbsp;&lt;/span&gt;&lt;/div&gt;&lt;div style=&quot;text-align: left;&quot;&gt;&lt;span style=&quot;background-color: initial;&quot;&gt;Control&lt;/span&gt;&lt;/div&gt;&lt;div style=&quot;text-align: left;&quot;&gt;&lt;span style=&quot;background-color: initial;&quot;&gt;Motor B&lt;/span&gt;&lt;/div&gt;" style="rounded=0;whiteSpace=wrap;html=1;fontColor=#000000;" parent="36" vertex="1">
                    <mxGeometry y="60" width="60" height="110" as="geometry"/>
                </mxCell>
                <mxCell id="33" value="&lt;div style=&quot;text-align: left;&quot;&gt;&lt;span style=&quot;background-color: initial;&quot;&gt;Terminal&amp;nbsp;&lt;/span&gt;&lt;/div&gt;&lt;div style=&quot;text-align: left;&quot;&gt;&lt;span style=&quot;background-color: initial;&quot;&gt;Control&lt;/span&gt;&lt;/div&gt;&lt;div style=&quot;text-align: left;&quot;&gt;&lt;span style=&quot;background-color: initial;&quot;&gt;Motor A&lt;/span&gt;&lt;/div&gt;" style="rounded=0;whiteSpace=wrap;html=1;fontColor=#000000;" parent="36" vertex="1">
                    <mxGeometry x="170" y="60" width="60" height="110" as="geometry"/>
                </mxCell>
                <mxCell id="15" style="edgeStyle=orthogonalEdgeStyle;html=1;entryX=0;entryY=0.5;entryDx=0;entryDy=0;entryPerimeter=0;endArrow=none;endFill=0;strokeWidth=4;fontColor=#000000;jumpStyle=arc;" parent="109" source="8" target="4" edge="1">
                    <mxGeometry relative="1" as="geometry"/>
                </mxCell>
                <mxCell id="17" value="" style="pointerEvents=1;verticalLabelPosition=bottom;shadow=0;dashed=0;align=center;html=1;verticalAlign=top;shape=mxgraph.electrical.signal_sources.signal_ground;fontColor=#000000;" parent="109" vertex="1">
                    <mxGeometry x="145" y="390" width="45" height="30" as="geometry"/>
                </mxCell>
                <mxCell id="21" style="edgeStyle=orthogonalEdgeStyle;html=1;entryX=0.5;entryY=0;entryDx=0;entryDy=0;entryPerimeter=0;endArrow=none;endFill=0;exitX=1;exitY=0.5;exitDx=0;exitDy=0;exitPerimeter=0;rounded=0;strokeWidth=4;fontColor=#000000;jumpStyle=arc;" parent="109" source="2" target="17" edge="1">
                    <mxGeometry relative="1" as="geometry">
                        <Array as="points">
                            <mxPoint x="285" y="380"/>
                            <mxPoint x="168" y="380"/>
                        </Array>
                    </mxGeometry>
                </mxCell>
                <mxCell id="18" style="edgeStyle=orthogonalEdgeStyle;html=1;entryX=0.5;entryY=0;entryDx=0;entryDy=0;entryPerimeter=0;endArrow=none;endFill=0;rounded=0;strokeWidth=4;fontColor=#000000;jumpStyle=arc;" parent="109" source="4" target="17" edge="1">
                    <mxGeometry relative="1" as="geometry">
                        <Array as="points">
                            <mxPoint x="30" y="380"/>
                            <mxPoint x="168" y="380"/>
                        </Array>
                    </mxGeometry>
                </mxCell>
                <mxCell id="116" value="Power Button" style="text;html=1;strokeColor=none;fillColor=none;align=center;verticalAlign=middle;whiteSpace=wrap;rounded=0;fontSize=17;fontColor=#000000;" parent="1" vertex="1">
                    <mxGeometry x="2130" y="365" width="60" height="30" as="geometry"/>
                </mxCell>
                <mxCell id="117" value="&lt;font style=&quot;font-size: 50px;&quot;&gt;Hardware Diagram&lt;/font&gt;" style="text;html=1;strokeColor=none;fillColor=none;align=left;verticalAlign=middle;whiteSpace=wrap;rounded=0;fontStyle=1;fontColor=#000000;" parent="1" vertex="1">
                    <mxGeometry x="1170" y="115" width="580" height="75" as="geometry"/>
                </mxCell>
                <mxCell id="414" style="edgeStyle=orthogonalEdgeStyle;rounded=0;html=1;exitX=0;exitY=0.75;exitDx=0;exitDy=0;entryX=0.5;entryY=1;entryDx=0;entryDy=0;strokeColor=#006EAF;strokeWidth=4;fontSize=50;fontColor=#000000;startArrow=classic;startFill=1;endArrow=none;endFill=0;fillColor=#1ba1e2;jumpStyle=arc;" parent="1" source="128" target="452" edge="1">
                    <mxGeometry relative="1" as="geometry"/>
                </mxCell>
                <mxCell id="419" style="edgeStyle=orthogonalEdgeStyle;rounded=0;jumpStyle=arc;html=1;strokeColor=#6F0000;strokeWidth=3;fontSize=50;fontColor=#000000;startArrow=classic;startFill=1;endArrow=none;endFill=0;fillColor=#a20025;" parent="1" source="128" target="418" edge="1">
                    <mxGeometry relative="1" as="geometry"/>
                </mxCell>
                <mxCell id="468" style="edgeStyle=orthogonalEdgeStyle;rounded=0;jumpStyle=arc;html=1;exitX=0;exitY=0.25;exitDx=0;exitDy=0;entryX=0.5;entryY=1;entryDx=0;entryDy=0;strokeColor=#3700CC;strokeWidth=4;fontSize=15;fontColor=#000000;startArrow=none;startFill=0;endArrow=classic;endFill=1;fillColor=#6a00ff;" parent="1" source="128" target="444" edge="1">
                    <mxGeometry relative="1" as="geometry"/>
                </mxCell>
                <mxCell id="128" value="HCSR04_3&lt;br&gt;(right)" style="rounded=0;whiteSpace=wrap;html=1;fontSize=15;fontColor=#000000;" parent="1" vertex="1">
                    <mxGeometry x="1460" y="705" width="100" height="65" as="geometry"/>
                </mxCell>
                <mxCell id="429" style="edgeStyle=orthogonalEdgeStyle;rounded=0;jumpStyle=arc;html=1;entryX=0.632;entryY=0.566;entryDx=0;entryDy=0;entryPerimeter=0;strokeColor=#6F0000;strokeWidth=3;fontSize=50;fontColor=#000000;startArrow=classic;startFill=1;endArrow=none;endFill=0;fillColor=#a20025;" parent="1" source="130" target="424" edge="1">
                    <mxGeometry relative="1" as="geometry"/>
                </mxCell>
                <mxCell id="130" value="HCSR04_2&lt;br&gt;(medium)" style="rounded=0;whiteSpace=wrap;html=1;fontSize=15;fontColor=#000000;" parent="1" vertex="1">
                    <mxGeometry x="1460" y="785" width="100" height="65" as="geometry"/>
                </mxCell>
                <mxCell id="357" style="edgeStyle=orthogonalEdgeStyle;rounded=0;html=1;exitX=0;exitY=0.25;exitDx=0;exitDy=0;strokeColor=#3700CC;strokeWidth=4;fontColor=#000000;startArrow=none;startFill=0;endArrow=classic;endFill=1;fillColor=#6a00ff;entryX=0.5;entryY=1;entryDx=0;entryDy=0;jumpStyle=arc;" parent="1" source="132" target="455" edge="1">
                    <mxGeometry relative="1" as="geometry">
                        <mxPoint x="1185" y="690" as="targetPoint"/>
                        <Array as="points">
                            <mxPoint x="1460" y="880"/>
                            <mxPoint x="1275" y="880"/>
                        </Array>
                    </mxGeometry>
                </mxCell>
                <mxCell id="359" style="edgeStyle=orthogonalEdgeStyle;rounded=0;html=1;exitX=0;exitY=0.75;exitDx=0;exitDy=0;strokeColor=#006EAF;strokeWidth=4;fontSize=15;fontColor=#000000;startArrow=classic;startFill=1;endArrow=none;endFill=0;fillColor=#1ba1e2;entryX=0.5;entryY=1;entryDx=0;entryDy=0;jumpStyle=arc;" parent="1" source="132" target="456" edge="1">
                    <mxGeometry relative="1" as="geometry">
                        <mxPoint x="1205" y="690" as="targetPoint"/>
                        <Array as="points">
                            <mxPoint x="1245" y="914"/>
                        </Array>
                    </mxGeometry>
                </mxCell>
                <mxCell id="428" style="edgeStyle=orthogonalEdgeStyle;rounded=0;jumpStyle=arc;html=1;entryX=0.54;entryY=0.64;entryDx=0;entryDy=0;entryPerimeter=0;strokeColor=#6F0000;strokeWidth=3;fontSize=50;fontColor=#000000;startArrow=classic;startFill=1;endArrow=none;endFill=0;fillColor=#a20025;" parent="1" source="132" target="426" edge="1">
                    <mxGeometry relative="1" as="geometry"/>
                </mxCell>
                <mxCell id="132" value="HCSR04_1&lt;br&gt;(left)" style="rounded=0;whiteSpace=wrap;html=1;fontSize=15;fontColor=#000000;" parent="1" vertex="1">
                    <mxGeometry x="1460" y="865" width="100" height="65" as="geometry"/>
                </mxCell>
                <mxCell id="115" style="edgeStyle=orthogonalEdgeStyle;rounded=0;html=1;startArrow=classic;startFill=1;endArrow=none;endFill=0;strokeWidth=4;fontColor=#000000;jumpStyle=arc;" parent="1" source="66" edge="1">
                    <mxGeometry relative="1" as="geometry">
                        <mxPoint x="1420" y="285" as="targetPoint"/>
                    </mxGeometry>
                </mxCell>
                <mxCell id="66" value="Mp1548&amp;nbsp;&lt;br&gt;Step down module" style="rounded=0;whiteSpace=wrap;html=1;fontSize=15;fontColor=#000000;" parent="1" vertex="1">
                    <mxGeometry x="1270" y="255" width="120" height="60" as="geometry"/>
                </mxCell>
                <mxCell id="69" value="5V" style="text;html=1;strokeColor=none;fillColor=none;align=center;verticalAlign=middle;whiteSpace=wrap;rounded=0;fontSize=15;fontColor=#000000;" parent="1" vertex="1">
                    <mxGeometry x="1205" y="260" width="60" height="30" as="geometry"/>
                </mxCell>
                <mxCell id="65" value="" style="rounded=0;whiteSpace=wrap;html=1;fontSize=15;align=center;fontColor=#000000;" parent="1" vertex="1">
                    <mxGeometry x="220" y="240" width="1200" height="180" as="geometry"/>
                </mxCell>
                <mxCell id="80" value="Vin (jack)" style="whiteSpace=wrap;html=1;aspect=fixed;fontSize=15;fontColor=#000000;" parent="1" vertex="1">
                    <mxGeometry x="1320" y="240" width="100" height="100" as="geometry"/>
                </mxCell>
                <mxCell id="119" value="Zybo Z7 (7010)" style="text;html=1;strokeColor=none;fillColor=none;align=center;verticalAlign=middle;whiteSpace=wrap;rounded=0;fontSize=40;fontColor=#000000;" parent="1" vertex="1">
                    <mxGeometry x="495" y="245" width="489.2857142857143" height="71.59" as="geometry"/>
                </mxCell>
                <mxCell id="222" value="" style="group;fontColor=#000000;" parent="1" vertex="1" connectable="0">
                    <mxGeometry x="220" y="340" width="240" height="80" as="geometry"/>
                </mxCell>
                <mxCell id="223" value="" style="rounded=0;whiteSpace=wrap;html=1;fontColor=#000000;" parent="222" vertex="1">
                    <mxGeometry width="240" height="79.55" as="geometry"/>
                </mxCell>
                <mxCell id="224" value="1" style="rounded=0;whiteSpace=wrap;html=1;fontColor=#000000;" parent="222" vertex="1">
                    <mxGeometry y="60" width="20" height="20" as="geometry"/>
                </mxCell>
                <mxCell id="225" value="2" style="rounded=0;whiteSpace=wrap;html=1;fontColor=#000000;" parent="222" vertex="1">
                    <mxGeometry x="20" y="60" width="20" height="20" as="geometry"/>
                </mxCell>
                <mxCell id="226" value="3" style="rounded=0;whiteSpace=wrap;html=1;fontColor=#000000;" parent="222" vertex="1">
                    <mxGeometry x="40" y="60" width="20" height="20" as="geometry"/>
                </mxCell>
                <mxCell id="227" value="4" style="rounded=0;whiteSpace=wrap;html=1;fontColor=#000000;" parent="222" vertex="1">
                    <mxGeometry x="60" y="59.549999999999955" width="20" height="20" as="geometry"/>
                </mxCell>
                <mxCell id="228" value="5" style="rounded=0;whiteSpace=wrap;html=1;fontColor=#000000;" parent="222" vertex="1">
                    <mxGeometry x="80" y="59.549999999999955" width="20" height="20" as="geometry"/>
                </mxCell>
                <mxCell id="229" value="6" style="rounded=0;whiteSpace=wrap;html=1;fontColor=#000000;" parent="222" vertex="1">
                    <mxGeometry x="100" y="59.549999999999955" width="20" height="20" as="geometry"/>
                </mxCell>
                <mxCell id="230" value="7" style="rounded=0;whiteSpace=wrap;html=1;fontColor=#000000;" parent="222" vertex="1">
                    <mxGeometry x="120" y="59.549999999999955" width="20" height="20" as="geometry"/>
                </mxCell>
                <mxCell id="231" value="8" style="rounded=0;whiteSpace=wrap;html=1;fontColor=#000000;" parent="222" vertex="1">
                    <mxGeometry x="140" y="60" width="20" height="20" as="geometry"/>
                </mxCell>
                <mxCell id="232" value="9" style="rounded=0;whiteSpace=wrap;html=1;fontColor=#000000;" parent="222" vertex="1">
                    <mxGeometry x="160" y="59.549999999999955" width="20" height="20" as="geometry"/>
                </mxCell>
                <mxCell id="233" value="10" style="rounded=0;whiteSpace=wrap;html=1;fontColor=#000000;" parent="222" vertex="1">
                    <mxGeometry x="180" y="59.549999999999955" width="20" height="20" as="geometry"/>
                </mxCell>
                <mxCell id="234" value="11" style="rounded=0;whiteSpace=wrap;html=1;fontColor=#000000;" parent="222" vertex="1">
                    <mxGeometry x="200" y="60" width="20" height="20" as="geometry"/>
                </mxCell>
                <mxCell id="235" value="12" style="rounded=0;whiteSpace=wrap;html=1;fontColor=#000000;" parent="222" vertex="1">
                    <mxGeometry x="220" y="60" width="20" height="20" as="geometry"/>
                </mxCell>
                <mxCell id="236" value="PMOD A" style="text;html=1;strokeColor=none;fillColor=none;align=center;verticalAlign=middle;whiteSpace=wrap;rounded=0;fontSize=15;fontColor=#000000;" parent="222" vertex="1">
                    <mxGeometry x="75" y="15.70999999999998" width="90" height="30" as="geometry"/>
                </mxCell>
                <mxCell id="191" value="" style="group;fontColor=#000000;" parent="1" vertex="1" connectable="0">
                    <mxGeometry x="460" y="340" width="240" height="80" as="geometry"/>
                </mxCell>
                <mxCell id="192" value="" style="rounded=0;whiteSpace=wrap;html=1;fontColor=#000000;" parent="191" vertex="1">
                    <mxGeometry width="240" height="79.55" as="geometry"/>
                </mxCell>
                <mxCell id="193" value="1" style="rounded=0;whiteSpace=wrap;html=1;fontColor=#000000;" parent="191" vertex="1">
                    <mxGeometry y="60" width="20" height="20" as="geometry"/>
                </mxCell>
                <mxCell id="194" value="2" style="rounded=0;whiteSpace=wrap;html=1;fontColor=#000000;" parent="191" vertex="1">
                    <mxGeometry x="20" y="60" width="20" height="20" as="geometry"/>
                </mxCell>
                <mxCell id="195" value="3" style="rounded=0;whiteSpace=wrap;html=1;fontColor=#000000;" parent="191" vertex="1">
                    <mxGeometry x="40" y="60" width="20" height="20" as="geometry"/>
                </mxCell>
                <mxCell id="196" value="4" style="rounded=0;whiteSpace=wrap;html=1;fontColor=#000000;" parent="191" vertex="1">
                    <mxGeometry x="60" y="59.549999999999955" width="20" height="20" as="geometry"/>
                </mxCell>
                <mxCell id="197" value="5" style="rounded=0;whiteSpace=wrap;html=1;fontColor=#000000;" parent="191" vertex="1">
                    <mxGeometry x="80" y="59.549999999999955" width="20" height="20" as="geometry"/>
                </mxCell>
                <mxCell id="198" value="6" style="rounded=0;whiteSpace=wrap;html=1;fontColor=#000000;" parent="191" vertex="1">
                    <mxGeometry x="100" y="59.549999999999955" width="20" height="20" as="geometry"/>
                </mxCell>
                <mxCell id="199" value="7" style="rounded=0;whiteSpace=wrap;html=1;fontColor=#000000;" parent="191" vertex="1">
                    <mxGeometry x="120" y="59.549999999999955" width="20" height="20" as="geometry"/>
                </mxCell>
                <mxCell id="200" value="8" style="rounded=0;whiteSpace=wrap;html=1;fontColor=#000000;" parent="191" vertex="1">
                    <mxGeometry x="140" y="60" width="20" height="20" as="geometry"/>
                </mxCell>
                <mxCell id="201" value="9" style="rounded=0;whiteSpace=wrap;html=1;fontColor=#000000;" parent="191" vertex="1">
                    <mxGeometry x="160" y="59.549999999999955" width="20" height="20" as="geometry"/>
                </mxCell>
                <mxCell id="202" value="10" style="rounded=0;whiteSpace=wrap;html=1;fontColor=#000000;" parent="191" vertex="1">
                    <mxGeometry x="180" y="59.549999999999955" width="20" height="20" as="geometry"/>
                </mxCell>
                <mxCell id="203" value="11" style="rounded=0;whiteSpace=wrap;html=1;fontColor=#000000;" parent="191" vertex="1">
                    <mxGeometry x="200" y="60" width="20" height="20" as="geometry"/>
                </mxCell>
                <mxCell id="204" value="12" style="rounded=0;whiteSpace=wrap;html=1;fontColor=#000000;" parent="191" vertex="1">
                    <mxGeometry x="220" y="60" width="20" height="20" as="geometry"/>
                </mxCell>
                <mxCell id="205" value="PMOD C" style="text;html=1;strokeColor=none;fillColor=none;align=center;verticalAlign=middle;whiteSpace=wrap;rounded=0;fontSize=15;fontColor=#000000;" parent="191" vertex="1">
                    <mxGeometry x="75" y="15.70999999999998" width="90" height="30" as="geometry"/>
                </mxCell>
                <mxCell id="237" value="" style="group;fontColor=#000000;" parent="1" vertex="1" connectable="0">
                    <mxGeometry x="700" y="340" width="240" height="80" as="geometry"/>
                </mxCell>
                <mxCell id="238" value="" style="rounded=0;whiteSpace=wrap;html=1;fontColor=#000000;" parent="237" vertex="1">
                    <mxGeometry width="240" height="79.55" as="geometry"/>
                </mxCell>
                <mxCell id="239" value="1" style="rounded=0;whiteSpace=wrap;html=1;fontColor=#000000;" parent="237" vertex="1">
                    <mxGeometry y="60" width="20" height="20" as="geometry"/>
                </mxCell>
                <mxCell id="240" value="2" style="rounded=0;whiteSpace=wrap;html=1;fontColor=#000000;" parent="237" vertex="1">
                    <mxGeometry x="20" y="60" width="20" height="20" as="geometry"/>
                </mxCell>
                <mxCell id="241" value="3" style="rounded=0;whiteSpace=wrap;html=1;fontColor=#000000;" parent="237" vertex="1">
                    <mxGeometry x="40" y="60" width="20" height="20" as="geometry"/>
                </mxCell>
                <mxCell id="242" value="4" style="rounded=0;whiteSpace=wrap;html=1;fontColor=#000000;" parent="237" vertex="1">
                    <mxGeometry x="60" y="59.549999999999955" width="20" height="20" as="geometry"/>
                </mxCell>
                <mxCell id="243" value="5" style="rounded=0;whiteSpace=wrap;html=1;fontColor=#000000;" parent="237" vertex="1">
                    <mxGeometry x="80" y="59.549999999999955" width="20" height="20" as="geometry"/>
                </mxCell>
                <mxCell id="244" value="6" style="rounded=0;whiteSpace=wrap;html=1;fontColor=#000000;" parent="237" vertex="1">
                    <mxGeometry x="100" y="59.549999999999955" width="20" height="20" as="geometry"/>
                </mxCell>
                <mxCell id="245" value="7" style="rounded=0;whiteSpace=wrap;html=1;fontColor=#000000;" parent="237" vertex="1">
                    <mxGeometry x="120" y="59.549999999999955" width="20" height="20" as="geometry"/>
                </mxCell>
                <mxCell id="246" value="8" style="rounded=0;whiteSpace=wrap;html=1;fontColor=#000000;" parent="237" vertex="1">
                    <mxGeometry x="140" y="60" width="20" height="20" as="geometry"/>
                </mxCell>
                <mxCell id="247" value="9" style="rounded=0;whiteSpace=wrap;html=1;fontColor=#000000;" parent="237" vertex="1">
                    <mxGeometry x="160" y="59.549999999999955" width="20" height="20" as="geometry"/>
                </mxCell>
                <mxCell id="248" value="10" style="rounded=0;whiteSpace=wrap;html=1;fontColor=#000000;" parent="237" vertex="1">
                    <mxGeometry x="180" y="59.549999999999955" width="20" height="20" as="geometry"/>
                </mxCell>
                <mxCell id="249" value="11" style="rounded=0;whiteSpace=wrap;html=1;fontColor=#000000;" parent="237" vertex="1">
                    <mxGeometry x="200" y="60" width="20" height="20" as="geometry"/>
                </mxCell>
                <mxCell id="250" value="12" style="rounded=0;whiteSpace=wrap;html=1;fontColor=#000000;" parent="237" vertex="1">
                    <mxGeometry x="220" y="60" width="20" height="20" as="geometry"/>
                </mxCell>
                <mxCell id="251" value="PMOD D" style="text;html=1;strokeColor=none;fillColor=none;align=center;verticalAlign=middle;whiteSpace=wrap;rounded=0;fontSize=15;fontColor=#000000;" parent="237" vertex="1">
                    <mxGeometry x="75" y="15.70999999999998" width="90" height="30" as="geometry"/>
                </mxCell>
                <mxCell id="185" value="" style="group;fontColor=#000000;" parent="1" vertex="1" connectable="0">
                    <mxGeometry x="940" y="340" width="240" height="80" as="geometry"/>
                </mxCell>
                <mxCell id="160" value="" style="rounded=0;whiteSpace=wrap;html=1;fontColor=#000000;" parent="185" vertex="1">
                    <mxGeometry width="240" height="79.55" as="geometry"/>
                </mxCell>
                <mxCell id="157" value="1" style="rounded=0;whiteSpace=wrap;html=1;fontColor=#000000;" parent="185" vertex="1">
                    <mxGeometry y="60" width="20" height="20" as="geometry"/>
                </mxCell>
                <mxCell id="173" value="2" style="rounded=0;whiteSpace=wrap;html=1;fontColor=#000000;" parent="185" vertex="1">
                    <mxGeometry x="20" y="60" width="20" height="20" as="geometry"/>
                </mxCell>
                <mxCell id="174" value="3" style="rounded=0;whiteSpace=wrap;html=1;fontColor=#000000;" parent="185" vertex="1">
                    <mxGeometry x="40" y="60" width="20" height="20" as="geometry"/>
                </mxCell>
                <mxCell id="175" value="4" style="rounded=0;whiteSpace=wrap;html=1;fontColor=#000000;" parent="185" vertex="1">
                    <mxGeometry x="60" y="59.549999999999955" width="20" height="20" as="geometry"/>
                </mxCell>
                <mxCell id="176" value="5" style="rounded=0;whiteSpace=wrap;html=1;fontColor=#000000;" parent="185" vertex="1">
                    <mxGeometry x="80" y="59.549999999999955" width="20" height="20" as="geometry"/>
                </mxCell>
                <mxCell id="177" value="6" style="rounded=0;whiteSpace=wrap;html=1;fontColor=#000000;" parent="185" vertex="1">
                    <mxGeometry x="100" y="59.549999999999955" width="20" height="20" as="geometry"/>
                </mxCell>
                <mxCell id="178" value="7" style="rounded=0;whiteSpace=wrap;html=1;fontColor=#000000;" parent="185" vertex="1">
                    <mxGeometry x="120" y="59.549999999999955" width="20" height="20" as="geometry"/>
                </mxCell>
                <mxCell id="179" value="8" style="rounded=0;whiteSpace=wrap;html=1;fontColor=#000000;" parent="185" vertex="1">
                    <mxGeometry x="140" y="60" width="20" height="20" as="geometry"/>
                </mxCell>
                <mxCell id="180" value="9" style="rounded=0;whiteSpace=wrap;html=1;fontColor=#000000;" parent="185" vertex="1">
                    <mxGeometry x="160" y="59.549999999999955" width="20" height="20" as="geometry"/>
                </mxCell>
                <mxCell id="181" value="10" style="rounded=0;whiteSpace=wrap;html=1;fontColor=#000000;" parent="185" vertex="1">
                    <mxGeometry x="180" y="59.549999999999955" width="20" height="20" as="geometry"/>
                </mxCell>
                <mxCell id="182" value="11" style="rounded=0;whiteSpace=wrap;html=1;fontColor=#000000;" parent="185" vertex="1">
                    <mxGeometry x="200" y="60" width="20" height="20" as="geometry"/>
                </mxCell>
                <mxCell id="183" value="12" style="rounded=0;whiteSpace=wrap;html=1;fontColor=#000000;" parent="185" vertex="1">
                    <mxGeometry x="220" y="60" width="20" height="20" as="geometry"/>
                </mxCell>
                <mxCell id="184" value="PMOD E" style="text;html=1;strokeColor=none;fillColor=none;align=center;verticalAlign=middle;whiteSpace=wrap;rounded=0;fontSize=15;fontColor=#000000;" parent="185" vertex="1">
                    <mxGeometry x="75" y="15.70999999999998" width="90" height="30" as="geometry"/>
                </mxCell>
                <mxCell id="267" value="" style="group;fontColor=#000000;" parent="1" vertex="1" connectable="0">
                    <mxGeometry x="1180" y="340" width="240" height="80" as="geometry"/>
                </mxCell>
                <mxCell id="268" value="" style="rounded=0;whiteSpace=wrap;html=1;fontColor=#000000;" parent="267" vertex="1">
                    <mxGeometry width="240" height="79.55" as="geometry"/>
                </mxCell>
                <mxCell id="269" value="1" style="rounded=0;whiteSpace=wrap;html=1;fontColor=#000000;" parent="267" vertex="1">
                    <mxGeometry y="60" width="20" height="20" as="geometry"/>
                </mxCell>
                <mxCell id="270" value="2" style="rounded=0;whiteSpace=wrap;html=1;fontColor=#000000;" parent="267" vertex="1">
                    <mxGeometry x="20" y="60" width="20" height="20" as="geometry"/>
                </mxCell>
                <mxCell id="271" value="3" style="rounded=0;whiteSpace=wrap;html=1;fontColor=#000000;" parent="267" vertex="1">
                    <mxGeometry x="40" y="60" width="20" height="20" as="geometry"/>
                </mxCell>
                <mxCell id="272" value="4" style="rounded=0;whiteSpace=wrap;html=1;fontColor=#000000;" parent="267" vertex="1">
                    <mxGeometry x="60" y="59.549999999999955" width="20" height="20" as="geometry"/>
                </mxCell>
                <mxCell id="273" value="5" style="rounded=0;whiteSpace=wrap;html=1;fontColor=#000000;" parent="267" vertex="1">
                    <mxGeometry x="80" y="59.549999999999955" width="20" height="20" as="geometry"/>
                </mxCell>
                <mxCell id="274" value="6" style="rounded=0;whiteSpace=wrap;html=1;fontColor=#000000;" parent="267" vertex="1">
                    <mxGeometry x="100" y="59.549999999999955" width="20" height="20" as="geometry"/>
                </mxCell>
                <mxCell id="275" value="7" style="rounded=0;whiteSpace=wrap;html=1;fontColor=#000000;" parent="267" vertex="1">
                    <mxGeometry x="120" y="59.549999999999955" width="20" height="20" as="geometry"/>
                </mxCell>
                <mxCell id="276" value="8" style="rounded=0;whiteSpace=wrap;html=1;fontColor=#000000;" parent="267" vertex="1">
                    <mxGeometry x="140" y="60" width="20" height="20" as="geometry"/>
                </mxCell>
                <mxCell id="277" value="9" style="rounded=0;whiteSpace=wrap;html=1;fontColor=#000000;" parent="267" vertex="1">
                    <mxGeometry x="160" y="59.549999999999955" width="20" height="20" as="geometry"/>
                </mxCell>
                <mxCell id="278" value="10" style="rounded=0;whiteSpace=wrap;html=1;fontColor=#000000;" parent="267" vertex="1">
                    <mxGeometry x="180" y="59.549999999999955" width="20" height="20" as="geometry"/>
                </mxCell>
                <mxCell id="279" value="11" style="rounded=0;whiteSpace=wrap;html=1;fontColor=#000000;" parent="267" vertex="1">
                    <mxGeometry x="200" y="60" width="20" height="20" as="geometry"/>
                </mxCell>
                <mxCell id="280" value="12" style="rounded=0;whiteSpace=wrap;html=1;fontColor=#000000;" parent="267" vertex="1">
                    <mxGeometry x="220" y="60" width="20" height="20" as="geometry"/>
                </mxCell>
                <mxCell id="281" value="PMOD F" style="text;html=1;strokeColor=none;fillColor=none;align=center;verticalAlign=middle;whiteSpace=wrap;rounded=0;fontSize=15;fontColor=#000000;" parent="267" vertex="1">
                    <mxGeometry x="75" y="15.70999999999998" width="90" height="30" as="geometry"/>
                </mxCell>
                <mxCell id="304" style="edgeStyle=orthogonalEdgeStyle;html=1;entryX=0.5;entryY=1;entryDx=0;entryDy=0;fontSize=15;endArrow=classic;endFill=1;strokeWidth=4;fillColor=#60a917;strokeColor=#2D7600;fontColor=#000000;jumpStyle=arc;" parent="1" source="286" target="193" edge="1">
                    <mxGeometry relative="1" as="geometry"/>
                </mxCell>
                <mxCell id="306" style="edgeStyle=orthogonalEdgeStyle;html=1;entryX=0.5;entryY=1;entryDx=0;entryDy=0;fontSize=15;endArrow=classic;endFill=1;strokeWidth=4;fillColor=#60a917;strokeColor=#2D7600;fontColor=#000000;jumpStyle=arc;" parent="1" source="288" target="194" edge="1">
                    <mxGeometry relative="1" as="geometry"/>
                </mxCell>
                <mxCell id="310" style="edgeStyle=orthogonalEdgeStyle;html=1;entryX=0.5;entryY=1;entryDx=0;entryDy=0;strokeWidth=4;fontSize=15;startArrow=none;startFill=0;endArrow=classic;endFill=1;exitX=1;exitY=0.5;exitDx=0;exitDy=0;fillColor=#60a917;strokeColor=#2D7600;fontColor=#000000;jumpStyle=arc;" parent="1" source="290" target="195" edge="1">
                    <mxGeometry relative="1" as="geometry"/>
                </mxCell>
                <mxCell id="314" style="edgeStyle=orthogonalEdgeStyle;html=1;entryX=0.5;entryY=1;entryDx=0;entryDy=0;strokeWidth=4;fontSize=15;startArrow=none;startFill=0;endArrow=classic;endFill=1;fillColor=#60a917;strokeColor=#2D7600;fontColor=#000000;jumpStyle=arc;" parent="1" source="292" target="196" edge="1">
                    <mxGeometry relative="1" as="geometry"/>
                </mxCell>
                <mxCell id="326" style="edgeStyle=orthogonalEdgeStyle;html=1;strokeWidth=4;fontSize=15;startArrow=none;startFill=0;endArrow=classic;endFill=1;jumpStyle=arc;fontColor=#000000;" parent="1" source="296" edge="1">
                    <mxGeometry relative="1" as="geometry">
                        <mxPoint x="830" y="420" as="targetPoint"/>
                    </mxGeometry>
                </mxCell>
                <mxCell id="325" style="edgeStyle=orthogonalEdgeStyle;html=1;strokeWidth=4;fontSize=15;startArrow=none;startFill=0;endArrow=classic;endFill=1;entryX=0.5;entryY=1;entryDx=0;entryDy=0;jumpStyle=arc;fontColor=#000000;" parent="1" source="297" target="246" edge="1">
                    <mxGeometry relative="1" as="geometry">
                        <mxPoint x="750" y="425" as="targetPoint"/>
                    </mxGeometry>
                </mxCell>
                <mxCell id="323" style="edgeStyle=orthogonalEdgeStyle;html=1;entryX=0.5;entryY=1;entryDx=0;entryDy=0;strokeWidth=4;fontSize=15;startArrow=none;startFill=0;endArrow=classic;endFill=1;fontColor=#000000;jumpStyle=arc;" parent="1" source="298" target="239" edge="1">
                    <mxGeometry relative="1" as="geometry"/>
                </mxCell>
                <mxCell id="324" style="edgeStyle=orthogonalEdgeStyle;html=1;strokeWidth=4;fontSize=15;startArrow=none;startFill=0;endArrow=classic;endFill=1;fontColor=#000000;jumpStyle=arc;" parent="1" source="299" target="240" edge="1">
                    <mxGeometry relative="1" as="geometry"/>
                </mxCell>
                <mxCell id="329" value="RC headlights" style="rounded=0;whiteSpace=wrap;fontSize=15;fontColor=#000000;" parent="1" vertex="1">
                    <mxGeometry x="727.5" y="945" width="197.5" height="80" as="geometry"/>
                </mxCell>
                <mxCell id="330" style="edgeStyle=orthogonalEdgeStyle;html=1;strokeWidth=4;fontSize=15;startArrow=none;startFill=0;endArrow=classic;endFill=1;fillColor=#008a00;strokeColor=#005700;fontColor=#000000;jumpStyle=arc;" parent="1" source="242" edge="1">
                    <mxGeometry relative="1" as="geometry">
                        <Array as="points">
                            <mxPoint x="770" y="885"/>
                            <mxPoint x="770" y="885"/>
                        </Array>
                        <mxPoint x="770" y="945" as="targetPoint"/>
                    </mxGeometry>
                </mxCell>
                <mxCell id="331" style="edgeStyle=orthogonalEdgeStyle;html=1;strokeWidth=4;fontSize=15;startArrow=none;startFill=0;endArrow=classic;endFill=1;entryX=0.821;entryY=0.008;entryDx=0;entryDy=0;entryPerimeter=0;fillColor=#008a00;strokeColor=#005700;fontColor=#000000;jumpStyle=arc;" parent="1" source="248" target="329" edge="1">
                    <mxGeometry relative="1" as="geometry">
                        <Array as="points">
                            <mxPoint x="889" y="840"/>
                            <mxPoint x="890" y="840"/>
                        </Array>
                        <mxPoint x="889" y="1080" as="targetPoint"/>
                    </mxGeometry>
                </mxCell>
                <mxCell id="332" value="" style="group;fontColor=#000000;" parent="1" vertex="1" connectable="0">
                    <mxGeometry x="290" y="575" width="160" height="315" as="geometry"/>
                </mxCell>
                <mxCell id="154" value="OV7670" style="rounded=0;whiteSpace=wrap;html=1;fontSize=15;fontColor=#000000;" parent="332" vertex="1">
                    <mxGeometry width="160" height="315" as="geometry"/>
                </mxCell>
                <mxCell id="286" value="D0" style="rounded=0;whiteSpace=wrap;html=1;fontColor=#000000;" parent="332" vertex="1">
                    <mxGeometry x="140" width="20" height="20" as="geometry"/>
                </mxCell>
                <mxCell id="287" value="D1" style="rounded=0;whiteSpace=wrap;html=1;fontColor=#000000;" parent="332" vertex="1">
                    <mxGeometry x="140" y="20" width="20" height="20" as="geometry"/>
                </mxCell>
                <mxCell id="288" value="D2" style="rounded=0;whiteSpace=wrap;html=1;fontColor=#000000;" parent="332" vertex="1">
                    <mxGeometry x="140" y="40" width="20" height="20" as="geometry"/>
                </mxCell>
                <mxCell id="289" value="D3" style="rounded=0;whiteSpace=wrap;html=1;fontColor=#000000;" parent="332" vertex="1">
                    <mxGeometry x="140" y="60" width="20" height="20" as="geometry"/>
                </mxCell>
                <mxCell id="290" value="D4" style="rounded=0;whiteSpace=wrap;html=1;fontColor=#000000;" parent="332" vertex="1">
                    <mxGeometry x="140" y="80" width="20" height="20" as="geometry"/>
                </mxCell>
                <mxCell id="291" value="D5" style="rounded=0;whiteSpace=wrap;html=1;fontColor=#000000;" parent="332" vertex="1">
                    <mxGeometry x="140" y="100" width="20" height="20" as="geometry"/>
                </mxCell>
                <mxCell id="292" value="D6" style="rounded=0;whiteSpace=wrap;html=1;fontColor=#000000;" parent="332" vertex="1">
                    <mxGeometry x="140" y="120" width="20" height="20" as="geometry"/>
                </mxCell>
                <mxCell id="293" value="D7" style="rounded=0;whiteSpace=wrap;html=1;fontColor=#000000;" parent="332" vertex="1">
                    <mxGeometry x="140" y="140" width="20" height="20" as="geometry"/>
                </mxCell>
                <mxCell id="294" value="PW&lt;br&gt;ON" style="rounded=0;whiteSpace=wrap;html=1;fontColor=#000000;" parent="332" vertex="1">
                    <mxGeometry width="30" height="35" as="geometry"/>
                </mxCell>
                <mxCell id="295" value="RST" style="rounded=0;whiteSpace=wrap;html=1;fontColor=#000000;" parent="332" vertex="1">
                    <mxGeometry x="30" width="30" height="35" as="geometry"/>
                </mxCell>
                <mxCell id="296" value="XCLK" style="rounded=0;whiteSpace=wrap;html=1;fontColor=#000000;" parent="332" vertex="1">
                    <mxGeometry x="115" y="235" width="45" height="20" as="geometry"/>
                </mxCell>
                <mxCell id="297" value="PCLK" style="rounded=0;whiteSpace=wrap;html=1;fontColor=#000000;" parent="332" vertex="1">
                    <mxGeometry x="115" y="215" width="45" height="20" as="geometry"/>
                </mxCell>
                <mxCell id="298" value="VSYNC" style="rounded=0;whiteSpace=wrap;html=1;fontColor=#000000;" parent="332" vertex="1">
                    <mxGeometry x="115" y="175" width="45" height="20" as="geometry"/>
                </mxCell>
                <mxCell id="299" value="HREF" style="rounded=0;whiteSpace=wrap;html=1;fontColor=#000000;" parent="332" vertex="1">
                    <mxGeometry x="115" y="195" width="45" height="20" as="geometry"/>
                </mxCell>
                <mxCell id="300" value="SIOC" style="rounded=0;whiteSpace=wrap;html=1;fontColor=#000000;" parent="332" vertex="1">
                    <mxGeometry x="115" y="275" width="45" height="20" as="geometry"/>
                </mxCell>
                <mxCell id="301" value="SIOD" style="rounded=0;whiteSpace=wrap;html=1;fontColor=#000000;" parent="332" vertex="1">
                    <mxGeometry x="115" y="295" width="45" height="20" as="geometry"/>
                </mxCell>
                <mxCell id="302" value="VCC" style="rounded=0;whiteSpace=wrap;html=1;fontColor=#000000;" parent="332" vertex="1">
                    <mxGeometry x="60" width="30" height="35" as="geometry"/>
                </mxCell>
                <mxCell id="303" value="GND" style="rounded=0;whiteSpace=wrap;html=1;fontColor=#000000;" parent="332" vertex="1">
                    <mxGeometry x="90" width="30" height="35" as="geometry"/>
                </mxCell>
                <mxCell id="335" style="edgeStyle=orthogonalEdgeStyle;html=1;entryX=1;entryY=0.5;entryDx=0;entryDy=0;rounded=0;startArrow=none;startFill=1;strokeWidth=4;fillColor=#a20025;strokeColor=#6F0000;fontColor=#000000;jumpStyle=arc;" parent="1" source="369" target="80" edge="1">
                    <mxGeometry relative="1" as="geometry">
                        <Array as="points"/>
                    </mxGeometry>
                </mxCell>
                <mxCell id="339" style="edgeStyle=orthogonalEdgeStyle;rounded=0;html=1;entryX=0;entryY=0.5;entryDx=0;entryDy=0;startArrow=none;startFill=0;endArrow=classic;endFill=1;strokeWidth=4;fontColor=#000000;jumpStyle=arc;" parent="1" source="173" target="32" edge="1">
                    <mxGeometry relative="1" as="geometry">
                        <Array as="points">
                            <mxPoint x="970" y="1130"/>
                        </Array>
                    </mxGeometry>
                </mxCell>
                <mxCell id="340" style="edgeStyle=orthogonalEdgeStyle;rounded=0;html=1;entryX=0;entryY=0.25;entryDx=0;entryDy=0;startArrow=none;startFill=0;endArrow=classic;endFill=1;strokeWidth=4;fillColor=#008a00;strokeColor=#005700;fontColor=#000000;jumpStyle=arc;" parent="1" source="174" target="32" edge="1">
                    <mxGeometry relative="1" as="geometry">
                        <Array as="points">
                            <mxPoint x="990" y="1103"/>
                        </Array>
                    </mxGeometry>
                </mxCell>
                <mxCell id="342" style="edgeStyle=orthogonalEdgeStyle;rounded=0;html=1;entryX=1;entryY=0.25;entryDx=0;entryDy=0;startArrow=none;startFill=0;endArrow=classic;endFill=1;strokeWidth=4;fontColor=#000000;jumpStyle=arc;" parent="1" source="178" target="33" edge="1">
                    <mxGeometry relative="1" as="geometry">
                        <Array as="points">
                            <mxPoint x="1070" y="965"/>
                            <mxPoint x="1385" y="965"/>
                            <mxPoint x="1385" y="1103"/>
                        </Array>
                    </mxGeometry>
                </mxCell>
                <mxCell id="343" style="edgeStyle=orthogonalEdgeStyle;rounded=0;html=1;entryX=1;entryY=0.5;entryDx=0;entryDy=0;startArrow=none;startFill=0;endArrow=classic;endFill=1;strokeWidth=4;fontColor=#000000;jumpStyle=arc;" parent="1" source="179" target="33" edge="1">
                    <mxGeometry relative="1" as="geometry">
                        <Array as="points">
                            <mxPoint x="1090" y="945"/>
                            <mxPoint x="1405" y="945"/>
                            <mxPoint x="1405" y="1130"/>
                        </Array>
                    </mxGeometry>
                </mxCell>
                <mxCell id="344" style="edgeStyle=orthogonalEdgeStyle;rounded=0;html=1;entryX=1;entryY=0.75;entryDx=0;entryDy=0;startArrow=none;startFill=0;endArrow=classic;endFill=1;strokeWidth=4;fillColor=#008a00;strokeColor=#005700;fontColor=#000000;jumpStyle=arc;" parent="1" source="180" target="33" edge="1">
                    <mxGeometry relative="1" as="geometry">
                        <Array as="points">
                            <mxPoint x="1110" y="930"/>
                            <mxPoint x="1425" y="930"/>
                            <mxPoint x="1425" y="1157"/>
                        </Array>
                    </mxGeometry>
                </mxCell>
                <mxCell id="432" style="edgeStyle=orthogonalEdgeStyle;rounded=0;jumpStyle=arc;html=1;strokeColor=#6F0000;strokeWidth=3;fontSize=50;fontColor=#000000;startArrow=classic;startFill=1;endArrow=none;endFill=0;fillColor=#a20025;" parent="1" source="346" target="431" edge="1">
                    <mxGeometry relative="1" as="geometry"/>
                </mxCell>
                <mxCell id="346" value="Encoder_1&lt;br&gt;(right)" style="rounded=0;whiteSpace=wrap;html=1;fontSize=15;fontColor=#000000;" parent="1" vertex="1">
                    <mxGeometry x="1460" y="550" width="100" height="60" as="geometry"/>
                </mxCell>
                <mxCell id="361" style="edgeStyle=orthogonalEdgeStyle;rounded=0;html=1;strokeColor=#3700CC;strokeWidth=4;fontSize=15;fontColor=#000000;startArrow=classic;startFill=1;endArrow=none;endFill=0;fillColor=#6a00ff;entryX=0;entryY=0.25;entryDx=0;entryDy=0;exitX=0.5;exitY=1;exitDx=0;exitDy=0;jumpStyle=arc;" parent="1" source="453" target="130" edge="1">
                    <mxGeometry relative="1" as="geometry">
                        <mxPoint x="1545" y="820" as="targetPoint"/>
                        <Array as="points">
                            <mxPoint x="1335" y="801"/>
                        </Array>
                    </mxGeometry>
                </mxCell>
                <mxCell id="362" style="edgeStyle=orthogonalEdgeStyle;rounded=0;html=1;strokeColor=#006EAF;strokeWidth=4;fontSize=15;fontColor=#000000;startArrow=none;startFill=0;endArrow=classic;endFill=1;fillColor=#1ba1e2;entryX=0;entryY=0.75;entryDx=0;entryDy=0;exitX=0.5;exitY=1;exitDx=0;exitDy=0;jumpStyle=arc;" parent="1" source="454" target="130" edge="1">
                    <mxGeometry relative="1" as="geometry">
                        <mxPoint x="1245" y="685" as="sourcePoint"/>
                        <mxPoint x="1595" y="839" as="targetPoint"/>
                        <Array as="points">
                            <mxPoint x="1305" y="834"/>
                        </Array>
                    </mxGeometry>
                </mxCell>
                <mxCell id="366" style="edgeStyle=orthogonalEdgeStyle;rounded=0;html=1;entryX=1;entryY=0.5;entryDx=0;entryDy=0;strokeColor=#BD7000;strokeWidth=4;fontSize=15;fontColor=#000000;startArrow=none;startFill=0;endArrow=classic;endFill=1;fillColor=#f0a30a;jumpStyle=arc;" parent="1" source="484" target="301" edge="1">
                    <mxGeometry relative="1" as="geometry">
                        <Array as="points"/>
                    </mxGeometry>
                </mxCell>
                <mxCell id="367" value="" style="rounded=0;whiteSpace=wrap;html=1;strokeColor=#2D7600;fontSize=15;fontColor=#000000;fillColor=#60a917;" parent="1" vertex="1">
                    <mxGeometry x="240" y="1075" width="30" height="30" as="geometry"/>
                </mxCell>
                <mxCell id="368" value="OV7670 data" style="text;html=1;strokeColor=none;fillColor=none;align=left;verticalAlign=middle;whiteSpace=wrap;rounded=0;fontSize=15;fontColor=#000000;" parent="1" vertex="1">
                    <mxGeometry x="285" y="1075" width="205" height="30" as="geometry"/>
                </mxCell>
                <mxCell id="370" value="" style="edgeStyle=orthogonalEdgeStyle;html=1;entryX=0.674;entryY=0.74;entryDx=0;entryDy=0;rounded=0;startArrow=classic;startFill=1;strokeWidth=7;fillColor=#e51400;strokeColor=#B20000;endArrow=none;exitX=0;exitY=0.5;exitDx=0;exitDy=0;endFill=0;jumpStyle=arc;fontColor=#000000;entryPerimeter=0;" parent="1" source="23" target="495" edge="1">
                    <mxGeometry relative="1" as="geometry">
                        <mxPoint x="1285" y="455" as="sourcePoint"/>
                        <mxPoint x="1420" y="290" as="targetPoint"/>
                        <Array as="points">
                            <mxPoint x="1045" y="1045"/>
                            <mxPoint x="1045" y="1000"/>
                            <mxPoint x="1765" y="1000"/>
                            <mxPoint x="1765" y="290"/>
                        </Array>
                    </mxGeometry>
                </mxCell>
                <mxCell id="369" value="Step down&lt;br&gt;MP1548" style="rounded=0;whiteSpace=wrap;html=1;fontSize=15;fontColor=#000000;" parent="1" vertex="1">
                    <mxGeometry x="1495" y="262.5" width="105" height="55" as="geometry"/>
                </mxCell>
                <mxCell id="374" value="" style="group;fontColor=#000000;" parent="1" vertex="1" connectable="0">
                    <mxGeometry x="1795" y="350" width="390" height="630" as="geometry"/>
                </mxCell>
                <mxCell id="78" value="&lt;h1&gt;18650 battery&lt;/h1&gt;&lt;div&gt;3V7 1500mah&lt;/div&gt;" style="text;html=1;strokeColor=none;fillColor=none;spacing=5;spacingTop=-20;whiteSpace=wrap;overflow=hidden;rounded=0;fontSize=15;fontColor=#000000;" parent="374" vertex="1">
                    <mxGeometry width="230" height="120" as="geometry"/>
                </mxCell>
                <mxCell id="108" value="" style="group;fontColor=#000000;" parent="374" vertex="1" connectable="0">
                    <mxGeometry x="30" y="90" width="360" height="540" as="geometry"/>
                </mxCell>
                <mxCell id="56" value="" style="rounded=0;whiteSpace=wrap;html=1;align=left;fontColor=#000000;" parent="108" vertex="1">
                    <mxGeometry x="220" y="30" width="120" height="510" as="geometry"/>
                </mxCell>
                <mxCell id="43" value="" style="verticalLabelPosition=bottom;shadow=0;dashed=0;align=center;fillColor=strokeColor;html=1;verticalAlign=top;strokeWidth=1;shape=mxgraph.electrical.miscellaneous.monocell_battery;direction=north;fontColor=#000000;" parent="108" vertex="1">
                    <mxGeometry x="250" y="200" width="60" height="70" as="geometry"/>
                </mxCell>
                <mxCell id="59" style="edgeStyle=orthogonalEdgeStyle;html=1;entryX=0.5;entryY=0;entryDx=0;entryDy=0;strokeWidth=4;startArrow=oval;startFill=1;endArrow=none;endFill=0;fontColor=#000000;jumpStyle=arc;" parent="108" target="49" edge="1">
                    <mxGeometry relative="1" as="geometry">
                        <mxPoint x="280" y="70" as="sourcePoint"/>
                        <Array as="points">
                            <mxPoint x="80" y="70"/>
                        </Array>
                    </mxGeometry>
                </mxCell>
                <mxCell id="45" value="" style="verticalLabelPosition=bottom;shadow=0;dashed=0;align=center;fillColor=strokeColor;html=1;verticalAlign=top;strokeWidth=1;shape=mxgraph.electrical.miscellaneous.monocell_battery;direction=north;fontColor=#000000;" parent="108" vertex="1">
                    <mxGeometry x="250" y="80" width="60" height="70" as="geometry"/>
                </mxCell>
                <mxCell id="53" style="edgeStyle=orthogonalEdgeStyle;html=1;exitX=1;exitY=0.5;exitDx=0;exitDy=0;exitPerimeter=0;entryX=0;entryY=0.5;entryDx=0;entryDy=0;entryPerimeter=0;strokeWidth=4;startArrow=none;startFill=0;endArrow=none;endFill=0;fontColor=#000000;jumpStyle=arc;" parent="108" source="43" target="45" edge="1">
                    <mxGeometry relative="1" as="geometry"/>
                </mxCell>
                <mxCell id="52" style="edgeStyle=orthogonalEdgeStyle;html=1;exitX=1;exitY=0.5;exitDx=0;exitDy=0;exitPerimeter=0;entryX=0;entryY=0.5;entryDx=0;entryDy=0;entryPerimeter=0;strokeWidth=4;startArrow=none;startFill=0;endArrow=none;endFill=0;fontColor=#000000;jumpStyle=arc;" parent="108" source="46" target="43" edge="1">
                    <mxGeometry relative="1" as="geometry"/>
                </mxCell>
                <mxCell id="46" value="" style="verticalLabelPosition=bottom;shadow=0;dashed=0;align=center;fillColor=strokeColor;html=1;verticalAlign=top;strokeWidth=1;shape=mxgraph.electrical.miscellaneous.monocell_battery;direction=north;fontColor=#000000;" parent="108" vertex="1">
                    <mxGeometry x="250" y="300" width="60" height="70" as="geometry"/>
                </mxCell>
                <mxCell id="47" value="" style="verticalLabelPosition=bottom;shadow=0;dashed=0;align=center;fillColor=strokeColor;html=1;verticalAlign=top;strokeWidth=1;shape=mxgraph.electrical.miscellaneous.monocell_battery;direction=north;fontColor=#000000;" parent="108" vertex="1">
                    <mxGeometry x="250" y="400" width="60" height="70" as="geometry"/>
                </mxCell>
                <mxCell id="51" style="edgeStyle=orthogonalEdgeStyle;html=1;exitX=0;exitY=0.5;exitDx=0;exitDy=0;exitPerimeter=0;entryX=1;entryY=0.5;entryDx=0;entryDy=0;entryPerimeter=0;strokeWidth=4;startArrow=none;startFill=0;endArrow=none;endFill=0;fontColor=#000000;jumpStyle=arc;" parent="108" source="46" target="47" edge="1">
                    <mxGeometry relative="1" as="geometry"/>
                </mxCell>
                <mxCell id="50" style="edgeStyle=orthogonalEdgeStyle;html=1;exitX=1;exitY=0.75;exitDx=0;exitDy=0;strokeWidth=4;startArrow=none;startFill=0;endArrow=oval;endFill=1;fontColor=#000000;jumpStyle=arc;" parent="108" source="49" edge="1">
                    <mxGeometry relative="1" as="geometry">
                        <mxPoint x="280" y="380" as="targetPoint"/>
                        <Array as="points">
                            <mxPoint x="180" y="290"/>
                            <mxPoint x="180" y="380"/>
                        </Array>
                    </mxGeometry>
                </mxCell>
                <mxCell id="57" style="edgeStyle=orthogonalEdgeStyle;html=1;exitX=1;exitY=0.5;exitDx=0;exitDy=0;strokeWidth=4;startArrow=none;startFill=0;endArrow=oval;endFill=1;fontColor=#000000;jumpStyle=arc;" parent="108" source="49" edge="1">
                    <mxGeometry relative="1" as="geometry">
                        <mxPoint x="280" y="290" as="targetPoint"/>
                        <Array as="points">
                            <mxPoint x="200" y="250"/>
                            <mxPoint x="200" y="290"/>
                        </Array>
                    </mxGeometry>
                </mxCell>
                <mxCell id="58" style="edgeStyle=orthogonalEdgeStyle;html=1;exitX=1;exitY=0.25;exitDx=0;exitDy=0;strokeWidth=4;startArrow=none;startFill=0;endArrow=oval;endFill=1;fontColor=#000000;jumpStyle=arc;" parent="108" source="49" edge="1">
                    <mxGeometry relative="1" as="geometry">
                        <mxPoint x="280" y="169.66666666666674" as="targetPoint"/>
                        <Array as="points">
                            <mxPoint x="200" y="210"/>
                            <mxPoint x="200" y="170"/>
                        </Array>
                    </mxGeometry>
                </mxCell>
                <mxCell id="49" value="BMS 4s 18650 module" style="whiteSpace=wrap;html=1;aspect=fixed;fontColor=#000000;" parent="108" vertex="1">
                    <mxGeometry y="170" width="160" height="160" as="geometry"/>
                </mxCell>
                <mxCell id="55" style="edgeStyle=orthogonalEdgeStyle;html=1;entryX=0;entryY=0.5;entryDx=0;entryDy=0;entryPerimeter=0;strokeWidth=4;startArrow=none;startFill=0;endArrow=oval;endFill=1;fontColor=#000000;jumpStyle=arc;" parent="108" source="49" target="47" edge="1">
                    <mxGeometry relative="1" as="geometry">
                        <Array as="points">
                            <mxPoint x="80" y="470"/>
                        </Array>
                    </mxGeometry>
                </mxCell>
                <mxCell id="54" value="" style="pointerEvents=1;verticalLabelPosition=bottom;shadow=0;dashed=0;align=center;html=1;verticalAlign=top;shape=mxgraph.electrical.signal_sources.signal_ground;fontColor=#000000;" parent="108" vertex="1">
                    <mxGeometry x="257.5" y="490" width="45" height="30" as="geometry"/>
                </mxCell>
                <mxCell id="61" style="edgeStyle=orthogonalEdgeStyle;html=1;exitX=0;exitY=0.5;exitDx=0;exitDy=0;exitPerimeter=0;strokeWidth=4;startArrow=none;startFill=0;endArrow=none;endFill=0;entryX=0.5;entryY=0;entryDx=0;entryDy=0;entryPerimeter=0;fontColor=#000000;jumpStyle=arc;" parent="108" source="47" target="54" edge="1">
                    <mxGeometry relative="1" as="geometry">
                        <mxPoint x="279.95238095238074" y="480" as="targetPoint"/>
                    </mxGeometry>
                </mxCell>
                <mxCell id="63" value="&lt;span style=&quot;text-align: left;&quot;&gt;14.8v&lt;/span&gt;" style="text;html=1;strokeColor=none;fillColor=none;align=center;verticalAlign=middle;whiteSpace=wrap;rounded=0;fontSize=15;fontColor=#000000;" parent="108" vertex="1">
                    <mxGeometry x="215" y="-5" width="60" height="30" as="geometry"/>
                </mxCell>
                <mxCell id="373" style="edgeStyle=orthogonalEdgeStyle;rounded=0;html=1;exitX=1;exitY=0.5;exitDx=0;exitDy=0;exitPerimeter=0;strokeColor=#FFFFFF;strokeWidth=4;fontSize=15;fontColor=#000000;startArrow=none;startFill=0;endArrow=none;endFill=0;entryX=0.5;entryY=0;entryDx=0;entryDy=0;jumpStyle=arc;" parent="108" source="45" target="56" edge="1">
                    <mxGeometry relative="1" as="geometry">
                        <mxPoint x="280.27027027027" y="70" as="targetPoint"/>
                        <Array as="points">
                            <mxPoint x="280" y="90"/>
                            <mxPoint x="280" y="90"/>
                        </Array>
                    </mxGeometry>
                </mxCell>
                <mxCell id="79" value="" style="endArrow=classic;html=1;strokeWidth=4;fontSize=15;exitX=0.609;exitY=0.625;exitDx=0;exitDy=0;exitPerimeter=0;entryX=0.25;entryY=0.127;entryDx=0;entryDy=0;entryPerimeter=0;fontColor=#000000;jumpStyle=arc;" parent="374" source="78" target="56" edge="1">
                    <mxGeometry width="50" height="50" relative="1" as="geometry">
                        <mxPoint x="340" y="230" as="sourcePoint"/>
                        <mxPoint x="390" y="180" as="targetPoint"/>
                    </mxGeometry>
                </mxCell>
                <mxCell id="112" value="" style="shape=mxgraph.electrical.electro-mechanical.singleSwitch;aspect=fixed;elSwitchState=off;html=0;direction=north;fontColor=#000000;" parent="374" vertex="1">
                    <mxGeometry x="295" y="-5" width="20" height="75" as="geometry"/>
                </mxCell>
                <mxCell id="375" style="edgeStyle=orthogonalEdgeStyle;rounded=0;html=1;exitX=0;exitY=0.8;exitDx=0;exitDy=0;entryX=0.5;entryY=0;entryDx=0;entryDy=0;strokeColor=#B20000;strokeWidth=7;fontSize=15;fontColor=#000000;startArrow=none;startFill=0;endArrow=none;endFill=0;fillColor=#e51400;jumpStyle=arc;" parent="374" source="112" target="56" edge="1">
                    <mxGeometry relative="1" as="geometry">
                        <Array as="points">
                            <mxPoint x="310" y="68"/>
                        </Array>
                    </mxGeometry>
                </mxCell>
                <mxCell id="376" value="" style="rounded=0;whiteSpace=wrap;html=1;strokeColor=#6F0000;fontSize=15;fontColor=#000000;fillColor=#a20025;" parent="1" vertex="1">
                    <mxGeometry x="240" y="1165" width="30" height="30" as="geometry"/>
                </mxCell>
                <mxCell id="378" value="VCC 5V" style="text;html=1;strokeColor=none;fillColor=none;align=left;verticalAlign=middle;whiteSpace=wrap;rounded=0;fontSize=15;fontColor=#000000;" parent="1" vertex="1">
                    <mxGeometry x="287.5" y="1165" width="205" height="30" as="geometry"/>
                </mxCell>
                <mxCell id="379" value="" style="rounded=0;whiteSpace=wrap;html=1;strokeColor=#3700CC;fontSize=15;fontColor=#000000;fillColor=#6a00ff;" parent="1" vertex="1">
                    <mxGeometry x="465" y="1120" width="30" height="30" as="geometry"/>
                </mxCell>
                <mxCell id="380" value="echo signal HCSR04" style="text;html=1;strokeColor=none;fillColor=none;align=left;verticalAlign=middle;whiteSpace=wrap;rounded=0;fontSize=15;fontColor=#000000;" parent="1" vertex="1">
                    <mxGeometry x="512.5" y="1120" width="205" height="30" as="geometry"/>
                </mxCell>
                <mxCell id="381" value="" style="rounded=0;whiteSpace=wrap;html=1;strokeColor=#006EAF;fontSize=15;fontColor=#000000;fillColor=#1ba1e2;" parent="1" vertex="1">
                    <mxGeometry x="465" y="1075" width="30" height="30" as="geometry"/>
                </mxCell>
                <mxCell id="382" value="trigger signal HCSR04" style="text;html=1;strokeColor=none;fillColor=none;align=left;verticalAlign=middle;whiteSpace=wrap;rounded=0;fontSize=15;fontColor=#000000;" parent="1" vertex="1">
                    <mxGeometry x="512.5" y="1075" width="205" height="30" as="geometry"/>
                </mxCell>
                <mxCell id="383" value="" style="rounded=0;whiteSpace=wrap;html=1;strokeColor=#C73500;fontSize=15;fontColor=#000000;fillColor=#fa6800;" parent="1" vertex="1">
                    <mxGeometry x="467.5" y="1165" width="30" height="30" as="geometry"/>
                </mxCell>
                <mxCell id="384" value="I2C clk" style="text;html=1;strokeColor=none;fillColor=none;align=left;verticalAlign=middle;whiteSpace=wrap;rounded=0;fontSize=15;fontColor=#000000;" parent="1" vertex="1">
                    <mxGeometry x="515" y="1165" width="205" height="30" as="geometry"/>
                </mxCell>
                <mxCell id="385" value="" style="rounded=0;whiteSpace=wrap;html=1;strokeColor=#BD7000;fontSize=15;fontColor=#000000;fillColor=#f0a30a;" parent="1" vertex="1">
                    <mxGeometry x="467.5" y="1210" width="30" height="30" as="geometry"/>
                </mxCell>
                <mxCell id="386" value="I2C data" style="text;html=1;strokeColor=none;fillColor=none;align=left;verticalAlign=middle;whiteSpace=wrap;rounded=0;fontSize=15;fontColor=#000000;" parent="1" vertex="1">
                    <mxGeometry x="515" y="1210" width="205" height="30" as="geometry"/>
                </mxCell>
                <mxCell id="387" value="" style="rounded=0;whiteSpace=wrap;html=1;strokeColor=#005700;fontSize=15;fontColor=#000000;fillColor=#008a00;" parent="1" vertex="1">
                    <mxGeometry x="467.5" y="1255" width="30" height="30" as="geometry"/>
                </mxCell>
                <mxCell id="388" value="PWM signals" style="text;html=1;strokeColor=none;fillColor=none;align=left;verticalAlign=middle;whiteSpace=wrap;rounded=0;fontSize=15;fontColor=#000000;" parent="1" vertex="1">
                    <mxGeometry x="515" y="1255" width="205" height="30" as="geometry"/>
                </mxCell>
                <mxCell id="395" value="" style="rounded=0;whiteSpace=wrap;html=1;strokeColor=#B20000;fontSize=15;fontColor=#000000;fillColor=#e51400;" parent="1" vertex="1">
                    <mxGeometry x="240" y="1120" width="30" height="30" as="geometry"/>
                </mxCell>
                <mxCell id="396" value="VCC 14V8" style="text;html=1;strokeColor=none;fillColor=none;align=left;verticalAlign=middle;whiteSpace=wrap;rounded=0;fontSize=15;fontColor=#000000;" parent="1" vertex="1">
                    <mxGeometry x="287.5" y="1120" width="205" height="30" as="geometry"/>
                </mxCell>
                <mxCell id="399" value="" style="rounded=0;whiteSpace=wrap;html=1;strokeColor=#b85450;fontSize=15;fillColor=#f8cecc;gradientColor=#ea6b66;fontColor=#000000;" parent="1" vertex="1">
                    <mxGeometry x="240" y="1210" width="30" height="30" as="geometry"/>
                </mxCell>
                <mxCell id="400" value="VCC 3V3" style="text;html=1;strokeColor=none;fillColor=none;align=left;verticalAlign=middle;whiteSpace=wrap;rounded=0;fontSize=15;fontColor=#000000;" parent="1" vertex="1">
                    <mxGeometry x="287.5" y="1210" width="205" height="30" as="geometry"/>
                </mxCell>
                <mxCell id="433" style="edgeStyle=orthogonalEdgeStyle;rounded=0;jumpStyle=arc;html=1;entryX=0.754;entryY=0.479;entryDx=0;entryDy=0;entryPerimeter=0;strokeColor=#6F0000;strokeWidth=3;fontSize=50;fontColor=#000000;startArrow=classic;startFill=1;endArrow=none;endFill=0;fillColor=#a20025;" parent="1" source="345" target="430" edge="1">
                    <mxGeometry relative="1" as="geometry"/>
                </mxCell>
                <mxCell id="345" value="Encoder_0&lt;br&gt;(left)" style="rounded=0;whiteSpace=wrap;html=1;fontSize=15;fontColor=#000000;" parent="1" vertex="1">
                    <mxGeometry x="1460" y="625" width="100" height="60" as="geometry"/>
                </mxCell>
                <mxCell id="410" style="edgeStyle=orthogonalEdgeStyle;rounded=0;html=1;entryX=0.5;entryY=1;entryDx=0;entryDy=0;strokeColor=#001DBC;strokeWidth=4;fontSize=50;fontColor=#000000;startArrow=none;startFill=0;endArrow=classic;endFill=1;fillColor=#0050ef;exitX=0.5;exitY=0;exitDx=0;exitDy=0;jumpStyle=arc;" parent="1" source="463" target="272" edge="1">
                    <mxGeometry relative="1" as="geometry">
                        <mxPoint x="1370" y="580" as="sourcePoint"/>
                        <Array as="points">
                            <mxPoint x="1275" y="460"/>
                            <mxPoint x="1250" y="460"/>
                        </Array>
                    </mxGeometry>
                </mxCell>
                <mxCell id="412" style="edgeStyle=orthogonalEdgeStyle;rounded=0;html=1;entryX=0.5;entryY=1;entryDx=0;entryDy=0;strokeColor=#006EAF;strokeWidth=4;fontSize=50;fontColor=#000000;startArrow=classic;startFill=1;endArrow=none;endFill=0;fillColor=#1ba1e2;exitX=0.5;exitY=0;exitDx=0;exitDy=0;jumpStyle=arc;" parent="1" source="460" target="275" edge="1">
                    <mxGeometry relative="1" as="geometry">
                        <mxPoint x="1310" y="605" as="sourcePoint"/>
                        <Array as="points">
                            <mxPoint x="1365" y="495"/>
                            <mxPoint x="1310" y="495"/>
                        </Array>
                    </mxGeometry>
                </mxCell>
                <mxCell id="413" style="edgeStyle=orthogonalEdgeStyle;rounded=0;html=1;entryX=0.5;entryY=1;entryDx=0;entryDy=0;strokeColor=#006EAF;strokeWidth=4;fontSize=50;fontColor=#000000;startArrow=classic;startFill=1;endArrow=none;endFill=0;fillColor=#1ba1e2;jumpStyle=arc;exitX=0.5;exitY=0;exitDx=0;exitDy=0;" parent="1" source="464" target="278" edge="1">
                    <mxGeometry relative="1" as="geometry">
                        <mxPoint x="1245" y="490" as="sourcePoint"/>
                        <Array as="points">
                            <mxPoint x="1245" y="475"/>
                            <mxPoint x="1370" y="475"/>
                        </Array>
                    </mxGeometry>
                </mxCell>
                <mxCell id="411" style="edgeStyle=orthogonalEdgeStyle;rounded=0;html=1;entryX=0.5;entryY=1;entryDx=0;entryDy=0;strokeColor=#006EAF;strokeWidth=4;fontSize=50;fontColor=#000000;startArrow=classic;startFill=1;endArrow=none;endFill=0;fillColor=#1ba1e2;exitX=0.5;exitY=0;exitDx=0;exitDy=0;jumpStyle=arc;" parent="1" source="462" target="269" edge="1">
                    <mxGeometry relative="1" as="geometry">
                        <mxPoint x="1290" y="605" as="sourcePoint"/>
                        <Array as="points">
                            <mxPoint x="1305" y="505"/>
                            <mxPoint x="1190" y="505"/>
                        </Array>
                    </mxGeometry>
                </mxCell>
                <mxCell id="418" value="" style="shape=waypoint;sketch=0;fillStyle=solid;size=6;pointerEvents=1;points=[];fillColor=#a20025;resizable=0;rotatable=0;perimeter=centerPerimeter;snapToPoint=1;strokeColor=#6F0000;fontSize=50;fontColor=#000000;html=0;strokeWidth=4;" parent="1" vertex="1">
                    <mxGeometry x="1595" y="728" width="20" height="20" as="geometry"/>
                </mxCell>
                <mxCell id="423" style="edgeStyle=orthogonalEdgeStyle;rounded=0;jumpStyle=arc;html=1;entryX=0.663;entryY=0.59;entryDx=0;entryDy=0;entryPerimeter=0;strokeColor=#6F0000;strokeWidth=3;fontSize=50;fontColor=#000000;startArrow=none;startFill=1;endArrow=none;endFill=0;fillColor=#a20025;" parent="1" source="424" target="418" edge="1">
                    <mxGeometry relative="1" as="geometry"/>
                </mxCell>
                <mxCell id="425" value="" style="edgeStyle=orthogonalEdgeStyle;rounded=0;jumpStyle=arc;html=1;entryDx=0;entryDy=0;entryPerimeter=0;strokeColor=#6F0000;strokeWidth=3;fontSize=50;fontColor=#000000;startArrow=none;startFill=1;endArrow=none;endFill=0;fillColor=#a20025;" parent="1" source="426" target="424" edge="1">
                    <mxGeometry relative="1" as="geometry">
                        <mxPoint x="1335" y="1044.9999999999998" as="sourcePoint"/>
                        <mxPoint x="1605" y="738" as="targetPoint"/>
                    </mxGeometry>
                </mxCell>
                <mxCell id="424" value="" style="shape=waypoint;sketch=0;fillStyle=solid;size=6;pointerEvents=1;points=[];fillColor=#a20025;resizable=0;rotatable=0;perimeter=centerPerimeter;snapToPoint=1;strokeColor=#6F0000;fontSize=50;fontColor=#000000;html=0;strokeWidth=4;" parent="1" vertex="1">
                    <mxGeometry x="1595" y="807.5" width="20" height="20" as="geometry"/>
                </mxCell>
                <mxCell id="426" value="" style="shape=waypoint;sketch=0;fillStyle=solid;size=6;pointerEvents=1;points=[];fillColor=#a20025;resizable=0;rotatable=0;perimeter=centerPerimeter;snapToPoint=1;strokeColor=#6F0000;fontSize=50;fontColor=#000000;html=0;" parent="1" vertex="1">
                    <mxGeometry x="1595" y="887.5" width="20" height="20" as="geometry"/>
                </mxCell>
                <mxCell id="435" style="edgeStyle=orthogonalEdgeStyle;rounded=0;jumpStyle=arc;html=1;strokeColor=#6F0000;strokeWidth=3;fontSize=50;fontColor=#000000;startArrow=none;startFill=0;endArrow=none;endFill=0;fillColor=#a20025;" parent="1" source="430" target="431" edge="1">
                    <mxGeometry relative="1" as="geometry"/>
                </mxCell>
                <mxCell id="430" value="" style="shape=waypoint;sketch=0;fillStyle=solid;size=6;pointerEvents=1;points=[];fillColor=#a20025;resizable=0;rotatable=0;perimeter=centerPerimeter;snapToPoint=1;strokeColor=#6F0000;fontSize=50;fontColor=#000000;html=0;strokeWidth=4;" parent="1" vertex="1">
                    <mxGeometry x="1595" y="645" width="20" height="20" as="geometry"/>
                </mxCell>
                <mxCell id="434" style="edgeStyle=orthogonalEdgeStyle;rounded=0;jumpStyle=arc;html=1;entryX=0.5;entryY=0.369;entryDx=0;entryDy=0;entryPerimeter=0;strokeColor=#6F0000;strokeWidth=3;fontSize=50;fontColor=#000000;startArrow=none;startFill=0;endArrow=none;endFill=0;fillColor=#a20025;" parent="1" target="418" edge="1">
                    <mxGeometry relative="1" as="geometry">
                        <mxPoint x="1605" y="655" as="sourcePoint"/>
                    </mxGeometry>
                </mxCell>
                <mxCell id="431" value="" style="shape=waypoint;sketch=0;fillStyle=solid;size=6;pointerEvents=1;points=[];fillColor=#a20025;resizable=0;rotatable=0;perimeter=centerPerimeter;snapToPoint=1;strokeColor=#6F0000;fontSize=50;fontColor=#000000;html=0;strokeWidth=4;" parent="1" vertex="1">
                    <mxGeometry x="1595" y="570" width="20" height="20" as="geometry"/>
                </mxCell>
                <mxCell id="467" value="" style="group;fontColor=#000000;strokeWidth=1;strokeColor=default;" parent="1" vertex="1" connectable="0">
                    <mxGeometry x="1170" y="535" width="240" height="155" as="geometry"/>
                </mxCell>
                <mxCell id="389" value="Logic Level Converter Bi-Directional Module" style="rounded=0;whiteSpace=wrap;strokeColor=default;fontSize=15;fontColor=#000000;align=center;strokeWidth=1;" parent="467" vertex="1">
                    <mxGeometry width="240" height="155" as="geometry"/>
                </mxCell>
                <mxCell id="407" value="Low level side" style="rounded=0;whiteSpace=wrap;html=1;strokeColor=default;fontSize=15;fontColor=#000000;strokeWidth=1;" parent="467" vertex="1">
                    <mxGeometry y="25" width="240" height="30" as="geometry"/>
                </mxCell>
                <mxCell id="408" value="High level side" style="rounded=0;whiteSpace=wrap;html=1;strokeColor=default;fontSize=15;fontColor=#000000;strokeWidth=1;" parent="467" vertex="1">
                    <mxGeometry y="100" width="240" height="30" as="geometry"/>
                </mxCell>
                <mxCell id="444" value="" style="rounded=0;whiteSpace=wrap;html=1;strokeColor=default;fontSize=50;fontColor=#000000;strokeWidth=1;" parent="467" vertex="1">
                    <mxGeometry x="210" y="130" width="30" height="25" as="geometry"/>
                </mxCell>
                <mxCell id="452" value="" style="rounded=0;whiteSpace=wrap;html=1;strokeColor=default;fontSize=50;fontColor=#000000;strokeWidth=1;" parent="467" vertex="1">
                    <mxGeometry x="180" y="130" width="30" height="25" as="geometry"/>
                </mxCell>
                <mxCell id="453" value="" style="rounded=0;whiteSpace=wrap;html=1;strokeColor=default;fontSize=50;fontColor=#000000;strokeWidth=1;" parent="467" vertex="1">
                    <mxGeometry x="150" y="130" width="30" height="25" as="geometry"/>
                </mxCell>
                <mxCell id="454" value="" style="rounded=0;whiteSpace=wrap;html=1;strokeColor=default;fontSize=50;fontColor=#000000;strokeWidth=1;" parent="467" vertex="1">
                    <mxGeometry x="120" y="130" width="30" height="25" as="geometry"/>
                </mxCell>
                <mxCell id="455" value="" style="rounded=0;whiteSpace=wrap;html=1;strokeColor=default;fontSize=50;fontColor=#000000;strokeWidth=1;" parent="467" vertex="1">
                    <mxGeometry x="90" y="130" width="30" height="25" as="geometry"/>
                </mxCell>
                <mxCell id="456" value="" style="rounded=0;whiteSpace=wrap;html=1;strokeColor=default;fontSize=50;fontColor=#000000;strokeWidth=1;" parent="467" vertex="1">
                    <mxGeometry x="60" y="130" width="30" height="25" as="geometry"/>
                </mxCell>
                <mxCell id="457" value="" style="rounded=0;whiteSpace=wrap;html=1;strokeColor=default;fontSize=50;fontColor=#000000;strokeWidth=1;" parent="467" vertex="1">
                    <mxGeometry x="30" y="130" width="30" height="25" as="geometry"/>
                </mxCell>
                <mxCell id="458" value="" style="rounded=0;whiteSpace=wrap;html=1;strokeColor=default;fontSize=50;fontColor=#000000;strokeWidth=1;" parent="467" vertex="1">
                    <mxGeometry y="130" width="30" height="25" as="geometry"/>
                </mxCell>
                <mxCell id="459" value="" style="rounded=0;whiteSpace=wrap;html=1;strokeColor=default;fontSize=50;fontColor=#000000;strokeWidth=1;" parent="467" vertex="1">
                    <mxGeometry x="210" width="30" height="25" as="geometry"/>
                </mxCell>
                <mxCell id="460" value="" style="rounded=0;whiteSpace=wrap;html=1;strokeColor=default;fontSize=50;fontColor=#000000;strokeWidth=1;" parent="467" vertex="1">
                    <mxGeometry x="180" width="30" height="25" as="geometry"/>
                </mxCell>
                <mxCell id="461" value="" style="rounded=0;whiteSpace=wrap;html=1;strokeColor=default;fontSize=50;fontColor=#000000;strokeWidth=1;" parent="467" vertex="1">
                    <mxGeometry x="150" width="30" height="25" as="geometry"/>
                </mxCell>
                <mxCell id="462" value="" style="rounded=0;whiteSpace=wrap;html=1;strokeColor=default;fontSize=50;fontColor=#000000;strokeWidth=1;" parent="467" vertex="1">
                    <mxGeometry x="120" width="30" height="25" as="geometry"/>
                </mxCell>
                <mxCell id="463" value="" style="rounded=0;whiteSpace=wrap;html=1;strokeColor=default;fontSize=50;fontColor=#000000;strokeWidth=1;" parent="467" vertex="1">
                    <mxGeometry x="90" width="30" height="25" as="geometry"/>
                </mxCell>
                <mxCell id="464" value="" style="rounded=0;whiteSpace=wrap;html=1;strokeColor=default;fontSize=50;fontColor=#000000;strokeWidth=1;" parent="467" vertex="1">
                    <mxGeometry x="60" width="30" height="25" as="geometry"/>
                </mxCell>
                <mxCell id="465" value="" style="rounded=0;whiteSpace=wrap;html=1;strokeColor=default;fontSize=50;fontColor=#000000;strokeWidth=1;" parent="467" vertex="1">
                    <mxGeometry x="30" width="30" height="25" as="geometry"/>
                </mxCell>
                <mxCell id="466" value="" style="rounded=0;whiteSpace=wrap;html=1;strokeColor=default;fontSize=50;fontColor=#000000;strokeWidth=1;" parent="467" vertex="1">
                    <mxGeometry width="30" height="25" as="geometry"/>
                </mxCell>
                <mxCell id="471" style="edgeStyle=orthogonalEdgeStyle;rounded=0;jumpStyle=arc;html=1;entryX=0.5;entryY=0;entryDx=0;entryDy=0;strokeColor=#001DBC;strokeWidth=4;fontSize=50;fontColor=#000000;startArrow=classic;startFill=1;endArrow=none;endFill=0;fillColor=#0050ef;" parent="1" source="276" target="459" edge="1">
                    <mxGeometry relative="1" as="geometry">
                        <Array as="points">
                            <mxPoint x="1330" y="460"/>
                            <mxPoint x="1395" y="460"/>
                        </Array>
                    </mxGeometry>
                </mxCell>
                <mxCell id="481" value="Orientation" style="text;html=1;strokeColor=none;fillColor=none;align=left;verticalAlign=middle;whiteSpace=wrap;rounded=0;sketch=0;fontSize=50;fontColor=#000000;" parent="1" vertex="1">
                    <mxGeometry x="240" y="1305" width="365" height="55" as="geometry"/>
                </mxCell>
                <mxCell id="327" style="edgeStyle=orthogonalEdgeStyle;html=1;entryX=0.5;entryY=1;entryDx=0;entryDy=0;strokeWidth=4;fontSize=15;startArrow=none;startFill=0;endArrow=classic;endFill=1;fontColor=#000000;jumpStyle=arc;" parent="1" source="295" target="241" edge="1">
                    <mxGeometry relative="1" as="geometry">
                        <Array as="points">
                            <mxPoint x="335" y="500"/>
                            <mxPoint x="750" y="500"/>
                        </Array>
                    </mxGeometry>
                </mxCell>
                <mxCell id="321" style="edgeStyle=orthogonalEdgeStyle;html=1;entryX=0.5;entryY=1;entryDx=0;entryDy=0;strokeWidth=4;fontSize=15;startArrow=none;startFill=0;endArrow=none;endFill=0;fillColor=#f8cecc;strokeColor=#b85450;gradientColor=#ea6b66;fontColor=#000000;jumpStyle=arc;exitX=0.345;exitY=0.641;exitDx=0;exitDy=0;exitPerimeter=0;" parent="1" source="500" target="198" edge="1">
                    <mxGeometry relative="1" as="geometry">
                        <Array as="points">
                            <mxPoint x="570" y="545"/>
                        </Array>
                    </mxGeometry>
                </mxCell>
                <mxCell id="322" style="edgeStyle=orthogonalEdgeStyle;html=1;strokeWidth=4;fontSize=15;startArrow=none;startFill=0;endArrow=classic;endFill=1;fontColor=#000000;jumpStyle=arc;" parent="1" source="303" edge="1">
                    <mxGeometry relative="1" as="geometry">
                        <mxPoint x="550" y="420" as="targetPoint"/>
                        <Array as="points">
                            <mxPoint x="395" y="560"/>
                            <mxPoint x="550" y="560"/>
                        </Array>
                    </mxGeometry>
                </mxCell>
                <mxCell id="328" style="edgeStyle=orthogonalEdgeStyle;html=1;strokeWidth=4;fontSize=15;startArrow=none;startFill=0;endArrow=classic;endFill=1;fontColor=#000000;jumpStyle=arc;" parent="1" source="294" edge="1">
                    <mxGeometry relative="1" as="geometry">
                        <mxPoint x="870" y="420" as="targetPoint"/>
                        <Array as="points">
                            <mxPoint x="305" y="475"/>
                            <mxPoint x="870" y="475"/>
                        </Array>
                    </mxGeometry>
                </mxCell>
                <mxCell id="317" style="edgeStyle=orthogonalEdgeStyle;html=1;entryX=0.5;entryY=1;entryDx=0;entryDy=0;strokeWidth=4;fontSize=15;startArrow=none;startFill=0;endArrow=classic;endFill=1;fillColor=#60a917;strokeColor=#2D7600;fontColor=#000000;jumpStyle=arc;" parent="1" source="287" target="199" edge="1">
                    <mxGeometry relative="1" as="geometry"/>
                </mxCell>
                <mxCell id="318" style="edgeStyle=orthogonalEdgeStyle;html=1;entryX=0.5;entryY=1;entryDx=0;entryDy=0;strokeWidth=4;fontSize=15;startArrow=none;startFill=0;endArrow=classic;endFill=1;fillColor=#60a917;strokeColor=#2D7600;fontColor=#000000;jumpStyle=arc;" parent="1" source="289" target="200" edge="1">
                    <mxGeometry relative="1" as="geometry"/>
                </mxCell>
                <mxCell id="319" style="edgeStyle=orthogonalEdgeStyle;html=1;entryX=0.5;entryY=1;entryDx=0;entryDy=0;strokeWidth=4;fontSize=15;startArrow=none;startFill=0;endArrow=classic;endFill=1;fillColor=#60a917;strokeColor=#2D7600;fontColor=#000000;jumpStyle=arc;" parent="1" source="291" target="201" edge="1">
                    <mxGeometry relative="1" as="geometry"/>
                </mxCell>
                <mxCell id="320" style="edgeStyle=orthogonalEdgeStyle;html=1;entryX=0.5;entryY=1;entryDx=0;entryDy=0;strokeWidth=4;fontSize=15;startArrow=none;startFill=0;endArrow=classic;endFill=1;fillColor=#60a917;strokeColor=#2D7600;fontColor=#000000;jumpStyle=arc;" parent="1" source="293" target="202" edge="1">
                    <mxGeometry relative="1" as="geometry"/>
                </mxCell>
                <mxCell id="482" value="HMC5883l" style="rounded=0;whiteSpace=wrap;fontSize=15;fontColor=#000000;" vertex="1" parent="1">
                    <mxGeometry x="600" y="945" width="115" height="80" as="geometry"/>
                </mxCell>
                <mxCell id="483" value="" style="edgeStyle=orthogonalEdgeStyle;rounded=0;html=1;entryDx=0;entryDy=0;strokeColor=#BD7000;strokeWidth=4;fontSize=15;fontColor=#000000;startArrow=none;startFill=0;endArrow=none;endFill=1;fillColor=#f0a30a;jumpStyle=arc;" edge="1" parent="1" source="271" target="484">
                    <mxGeometry relative="1" as="geometry">
                        <Array as="points">
                            <mxPoint x="1230" y="490"/>
                            <mxPoint x="925" y="490"/>
                            <mxPoint x="925" y="880"/>
                        </Array>
                        <mxPoint x="1230.0303030303032" y="420" as="sourcePoint"/>
                        <mxPoint x="450" y="880" as="targetPoint"/>
                    </mxGeometry>
                </mxCell>
                <mxCell id="485" style="edgeStyle=none;jumpStyle=arc;html=1;fontSize=15;rounded=0;strokeColor=#BD7000;fontColor=#000000;strokeWidth=4;startArrow=none;startFill=0;endFill=1;fillColor=#f0a30a;entryX=0.25;entryY=0;entryDx=0;entryDy=0;exitX=1.12;exitY=0.712;exitDx=0;exitDy=0;exitPerimeter=0;" edge="1" parent="1" source="484" target="482">
                    <mxGeometry relative="1" as="geometry">
                        <mxPoint x="615" y="945" as="targetPoint"/>
                    </mxGeometry>
                </mxCell>
                <mxCell id="484" value="" style="shape=waypoint;sketch=0;fillStyle=solid;size=6;pointerEvents=1;points=[];fillColor=#f0a30a;resizable=0;rotatable=0;perimeter=centerPerimeter;snapToPoint=1;strokeColor=#BD7000;strokeWidth=4;fontColor=#000000;" vertex="1" parent="1">
                    <mxGeometry x="620" y="870" width="20" height="20" as="geometry"/>
                </mxCell>
                <mxCell id="491" value="" style="edgeStyle=orthogonalEdgeStyle;rounded=0;html=1;entryDx=0;entryDy=0;strokeColor=#C73500;strokeWidth=4;fontSize=15;fontColor=#000000;startArrow=none;startFill=0;endArrow=none;endFill=1;fillColor=#fa6800;jumpStyle=arc;" edge="1" parent="1" source="270" target="490">
                    <mxGeometry relative="1" as="geometry">
                        <Array as="points">
                            <mxPoint x="1210" y="465"/>
                            <mxPoint x="905" y="465"/>
                            <mxPoint x="905" y="860"/>
                        </Array>
                        <mxPoint x="1210.0144927536232" y="420" as="sourcePoint"/>
                        <mxPoint x="450" y="860" as="targetPoint"/>
                    </mxGeometry>
                </mxCell>
                <mxCell id="492" style="edgeStyle=none;jumpStyle=arc;html=1;entryX=1;entryY=0.5;entryDx=0;entryDy=0;endArrow=classic;fontSize=15;rounded=0;strokeColor=#C73500;fontColor=#000000;strokeWidth=4;startArrow=none;startFill=0;endFill=1;fillColor=#fa6800;" edge="1" parent="1" source="490" target="300">
                    <mxGeometry relative="1" as="geometry"/>
                </mxCell>
                <mxCell id="493" style="edgeStyle=none;jumpStyle=arc;html=1;entryX=0.75;entryY=0;entryDx=0;entryDy=0;endArrow=classic;fontSize=15;rounded=0;strokeColor=#C73500;fontColor=#000000;strokeWidth=4;startArrow=none;startFill=0;endFill=1;fillColor=#fa6800;" edge="1" parent="1" source="490" target="482">
                    <mxGeometry relative="1" as="geometry"/>
                </mxCell>
                <mxCell id="490" value="" style="shape=waypoint;sketch=0;fillStyle=solid;size=6;pointerEvents=1;points=[];fillColor=#fa6800;resizable=0;rotatable=0;perimeter=centerPerimeter;snapToPoint=1;strokeColor=#C73500;strokeWidth=4;labelBackgroundColor=default;endArrow=none;fontSize=15;rounded=0;fontColor=#000000;startArrow=none;startFill=0;endFill=1;" vertex="1" parent="1">
                    <mxGeometry x="675" y="850" width="20" height="20" as="geometry"/>
                </mxCell>
                <mxCell id="495" value="" style="shape=waypoint;sketch=0;fillStyle=solid;size=6;pointerEvents=1;points=[];fillColor=#e51400;resizable=0;rotatable=0;perimeter=centerPerimeter;snapToPoint=1;strokeColor=#B20000;strokeWidth=7;fontColor=#000000;labelBackgroundColor=default;endArrow=oval;fontSize=11;rounded=0;startArrow=none;startFill=0;endFill=1;" vertex="1" parent="1">
                    <mxGeometry x="1755" y="280" width="20" height="20" as="geometry"/>
                </mxCell>
                <mxCell id="497" value="" style="edgeStyle=orthogonalEdgeStyle;rounded=0;html=1;exitX=1;exitY=0.8;exitDx=0;exitDy=0;startArrow=none;startFill=0;endArrow=none;endFill=1;strokeWidth=7;fillColor=#e51400;strokeColor=#B20000;fontColor=#000000;jumpStyle=arc;entryX=0.475;entryY=0.672;entryDx=0;entryDy=0;entryPerimeter=0;" edge="1" parent="1" source="112" target="495">
                    <mxGeometry relative="1" as="geometry">
                        <mxPoint x="2045" y="290" as="targetPoint"/>
                        <Array as="points">
                            <mxPoint x="2105" y="345"/>
                            <mxPoint x="2105" y="290"/>
                        </Array>
                        <mxPoint x="2386" y="327.5" as="sourcePoint"/>
                    </mxGeometry>
                </mxCell>
                <mxCell id="498" style="edgeStyle=none;jumpStyle=arc;html=1;entryX=0.312;entryY=0.631;entryDx=0;entryDy=0;entryPerimeter=0;endArrow=none;endFill=0;rounded=0;strokeColor=#B20000;fontColor=#000000;startArrow=none;startFill=0;strokeWidth=7;fillColor=#e51400;" edge="1" parent="1" source="496" target="495">
                    <mxGeometry relative="1" as="geometry"/>
                </mxCell>
                <mxCell id="499" style="edgeStyle=none;jumpStyle=arc;html=1;startArrow=none;startFill=0;endArrow=classic;endFill=1;rounded=0;strokeColor=#B20000;fontColor=#000000;strokeWidth=7;fillColor=#e51400;" edge="1" parent="1" source="496" target="369">
                    <mxGeometry relative="1" as="geometry"/>
                </mxCell>
                <mxCell id="496" value="" style="shape=waypoint;sketch=0;fillStyle=solid;size=6;pointerEvents=1;points=[];fillColor=#e51400;resizable=0;rotatable=0;perimeter=centerPerimeter;snapToPoint=1;strokeColor=#B20000;strokeWidth=7;fontColor=#000000;labelBackgroundColor=default;endArrow=oval;fontSize=11;rounded=0;startArrow=none;startFill=0;endFill=1;" vertex="1" parent="1">
                    <mxGeometry x="1660" y="280" width="20" height="20" as="geometry"/>
                </mxCell>
                <mxCell id="502" style="edgeStyle=orthogonalEdgeStyle;jumpStyle=arc;html=1;entryX=0.5;entryY=0;entryDx=0;entryDy=0;startArrow=none;startFill=0;endArrow=classic;endFill=1;fontSize=15;strokeColor=#b85450;fontColor=#000000;strokeWidth=4;fillColor=#f8cecc;gradientColor=#ea6b66;" edge="1" parent="1" source="500" target="302">
                    <mxGeometry relative="1" as="geometry"/>
                </mxCell>
                <mxCell id="503" style="edgeStyle=orthogonalEdgeStyle;jumpStyle=arc;html=1;entryX=0;entryY=0.5;entryDx=0;entryDy=0;startArrow=none;startFill=0;endArrow=classic;endFill=1;fontSize=15;strokeColor=#b85450;fontColor=#000000;strokeWidth=4;fillColor=#f8cecc;gradientColor=#ea6b66;" edge="1" parent="1" source="500" target="482">
                    <mxGeometry relative="1" as="geometry">
                        <Array as="points">
                            <mxPoint x="570" y="985"/>
                        </Array>
                    </mxGeometry>
                </mxCell>
                <mxCell id="500" value="" style="shape=waypoint;sketch=0;fillStyle=solid;size=6;pointerEvents=1;points=[];fillColor=#f8cecc;resizable=0;rotatable=0;perimeter=centerPerimeter;snapToPoint=1;strokeColor=#b85450;strokeWidth=4;labelBackgroundColor=default;endArrow=none;fontSize=15;rounded=1;fontColor=#000000;startArrow=classic;startFill=1;endFill=0;gradientColor=#ea6b66;" vertex="1" parent="1">
                    <mxGeometry x="560" y="535" width="20" height="20" as="geometry"/>
                </mxCell>
                <mxCell id="504" value="" style="group" vertex="1" connectable="0" parent="1">
                    <mxGeometry x="230" y="1365" width="515" height="210" as="geometry"/>
                </mxCell>
                <mxCell id="477" value="" style="rounded=1;whiteSpace=wrap;html=1;sketch=0;strokeColor=default;fontSize=50;fontColor=#000000;container=0;" parent="504" vertex="1">
                    <mxGeometry width="515" height="210" as="geometry"/>
                </mxCell>
                <mxCell id="474" value="Right" style="text;html=1;align=center;verticalAlign=middle;resizable=0;points=[];autosize=1;strokeColor=none;fillColor=none;fontSize=50;fontColor=#000000;container=0;" parent="504" vertex="1">
                    <mxGeometry x="340" y="77.5" width="140" height="75" as="geometry"/>
                </mxCell>
                <mxCell id="475" value="Left" style="text;html=1;align=center;verticalAlign=middle;resizable=0;points=[];autosize=1;strokeColor=none;fillColor=none;fontSize=50;fontColor=#000000;container=0;" parent="504" vertex="1">
                    <mxGeometry x="52.5" y="77.5" width="105" height="75" as="geometry"/>
                </mxCell>
                <mxCell id="479" value="" style="shape=image;verticalLabelPosition=bottom;labelBackgroundColor=default;verticalAlign=top;aspect=fixed;imageAspect=0;image=data:image/jpeg,/9j/4AAQSkZJRgABAQAAAQABAAD/2wCEAAoHCBIREhUSEhIREhgWFRQSEhISERISGRIRGBUaHBgVGRgeJS4zHB4rHxgYJjgnLC8xNTU1GiQ7QDszPy40NTEBDAwMEA8QHxISHzQrJCw0NjQ0NDQ/NDQ0NDYxMTE0NDQ0NDE0NDQ0NDQ0NDQ0NDQ0NDQ0NDQ0NDQ0NDQ0NDQ0NP/AABEIAOEA4QMBIgACEQEDEQH/xAAbAAEAAgMBAQAAAAAAAAAAAAAABQcCAwYEAf/EAEUQAAIBAgEGCQcJBwUBAAAAAAABAgMRBAUGEiExcTI0QVFhgbGywRMiM3JzgpEHIyRCUmKhotEUU5KTs8LwFUNUY+EW/8QAGQEBAQEBAQEAAAAAAAAAAAAAAAQDAgEF/8QALhEAAgECAwcDAwUBAAAAAAAAAAECAxEEElEhMTIzQXGBFGHRkaHwEyIjQ1Kx/9oADAMBAAIRAxEAPwC5gAAAAAAAAAAAAAAAap1Ur9G17Et7IfG5xUIJpVNKVnZU1p6/W2fidKLe45lJR3k6fGyq8djKteEqdSpUcZrRlac07dDvq6jnZ5qYSTvKnOb55VajfabPDSMFiodUy9boyKHWaWDTvGnOL541aifaT2TJzwtNU6VSqoptq9Scnr6bj08vYPFQ6JltA5vJecdJwjGpUcZKKUnOLs5c+l+tidpV4zSaaaeySaafWjGUXF7TeM1JbDeADk6AAAAAAAAAAAAAAAAAAAAAAAAAAABC5Yy3GheEVpStd80b8/T0EtVqKMZSeyKcnuSuytso4iU5OUts5OT/AE/zmNaNNTe0wr1HBbDDHZRqV3ec21yQ2RXu+J5AC5JJWRA3d3YAB6eAAAA3YTFzoy0qc5QfLZ6nvWxmkA9O6yLnAqrjColGUtUWtjfM+ZnQlWYSTTte3KnzNFk5OxHlaUJ8so6/WWqX4pkVamou6LqFVy2M9QAMCgAAAAAAAAAAAAAAAAAAAAAAAAjsuz0cNUfQo/xSS8Su8VtW4sDOR/Rp9LgvzxK/xXCW7xZXh9xDiuJdjSAfYrWt6KSYSVm1zOx8MqvCe99piAAAAfZKza5nY+Gddec95gAbMNwl1ne5rSvh7fZnJdj8TgqHCXX2HcZpv5qa/wCxv8sf0J8Qv2lGG4yfABGXgAAAAAAAAAAAAAAAAAAAAAAAEPnNxd+tHtOCxXCW7xZ3uc6+jvolDtOCxXCW7xZZh+EgxPH4NJlS4S3oxM6PCW9FBOK3Ce8wNmIXnPq7DXYIAR2reLGVNect67QDPE8J9XYajbiOE+rsNQW4Gyhwl19h2uaL8yp667pxVDhLr7Dtc0V5lR/fS/L/AOmFfg+hvh+M6IAER9AAAAAAAAAAAAAAAAAAAAAAAAAis419Fn0OH9SJwGK2rd4lhZejfDVNyfwkmV5jW/q20tF2vz8lyvD7iHE8S7Hgx2Op0IadWcYLkvtk+aKWtvcc3ic7akn9GpKK5J1uXpUE/HqIOc51ZeVqyc5v7WyH3Yx+qkZGc8RJ8Ow2hh4x4tv/AA24nH4uq71MTU18lP5tbvNtdbzySw2lwp1JetNvtNwMG295ukluMoZPgrOMqkXzxlY9FGWJpu9PF1lbYpvyi+Err8DOOxbjILZuDSe89lLObEwfz9KFWPLOjqklb7L2v4HQZOypRxMb0pqTXCg/NlHfF9uw5M0VKHnKpCTp1I641Iamn086N4V5LftMZ4eMt2wsPDcJdfYdzmmvmZP/ALH3Yle5EqznTpTqW05QjKVloq8lfZyFi5rRtQfTOT/BLwNa/DfsT4dWqfUmwARl4AAAAAAAAAAAAAAAAAAAAAMJysm3yJv4GZi1fUwCuMo5Zr4lyWlKMdqpxuko8mlbhdZAVKzhio03q06MprfCol2TfwLSyvRjTwtSMIRgrLVCKiuEuRFN504nyWPwU+SzhL1ZyUH3r9RZGost0rK5DKk81m7uxAZTo+Tr1Ycim5x9Wfnq3QtJrqPMTedlHRrQqW4cHBv71OV18VN/wkITVI5ZNFdKWaCYABwdntjsW5H0+R2LcjIA+HycHO1NXvOUaaa2rTkot9SbfUfT15GpaeKhzQjOo99tGK/PJ+6exWaSRzKWWLZ0NatbEUKMVtjVnZckYJRS/O/gTWCylXwzWhKUVfgSu4S59T7VrOQwmI08saPJChKn16Kk+/bqLgzahGWHcZRUlpyupJNPUuRlkqiSbtdXsRRptySTs7XJPAYjytKFRK2lFStzNrWj1GulTjGKjFJJKySVkl0I2EXYuW7aAAD0AAAAAAAAAAAAAAAAAAAAAjc4OLVN0e/Eob5R7+VoW1Pyc7PmemtZe+cXFanud+JRvyhU9KrRb2KnJbeV1IpeJquU+/wYPnLt8npy9NV8FDEJcHyVbcpK0/gpy+BA0MFXqa6dGrJc7ioLenNq63HSZnTlLBwv9WU4rdpNrtJxo3dNVLSb6GCquleCXVnFxzfxb+rQj69V/wBsWbo5tYjlnh1udR/2o66wt/l0eqhA59RUOX/0HEJap4d73VXgzW8jYtfUw8vVrSv+aCOssfdH/Oc9dCmFiKhxk8FiI3c6FRLnjozT3KDbfwJHNaCtWrPUnKNNN/YhG7f8U5LqOl0rLl1K2/bbt6SNy9OUcNXlHU3CaWtKzlq8TmNJQea51Ks5rJqcpmbXdXKLqO/nxrS18ik00vgy+M1fQP2ku7EoPMOLWNjq2U5/ilYvvNT0EvaS7sDH+ryb/wB3gnQAYm4AAAAAAAAAAAAAAAAAAAAAAABF5x8Vqe534lG/KHNKrRb2+TlZe+n2pcpeWcfFZ74f1IlI5+5PrVqtHyVKpUtCSbhCUknpLU3yGy5T7/BPJ/zLt8nrzOknhI2+1JPekkz2Zeyk8PTjKCi5SnGEVK9k7OTb6oyPNmthKlHDKFWEqctOctGVr2b1PUefPFfNUvbr+lUKNqpXWhhsda3S5HTy1iGn89Z8ijThq1NarxfOtXQYSyxiNf0ifLbzKXKpfc6V8CNBHnlqyz9OOiJpZQr3v+01OXVo0eW/3OlH2nlLEK968ne3ChS8InhjsW5GQzy1Y/Tjojo8iZTnWdSFRR0oaElKKaU4S0tq5GnF/gbM5ZfQ8RZ/U1fFEXmuvna7+5QX41CWy3QnUw1WFOLnKULRirXbutRZBt0rv3I5pRq2XscvmTUTx2rXeE2nuX/peearfkXbX847/wAMCkczcl4ijjIyqUatNaFRaUoNRu7WWlsLvzT9DL2j7kSe38Xkov8AzeCeABibgAAAAAAAAAAAAAAAAAAAAAAAEXnHxWe+H9SJU2c2cksFOEI0lU04uV3Nw0bO1raLvtLZzj4tPfD+pEoj5SPS0PZz76N4ycaba1JpxUqqT0+Toci5Uli6XlZQjTelKOjFuStHpZ5c6cPOph/Mg5yhUhPRirtpXTsuV2kacyuKe/U7UT5TFZ6dn1RNJ5Kjt0ZW16n7jEfyZi9T9xiP5MyygY+mWv2NvVv/AD9yvViZ/wDHxX8mQ/aZ/wDHxX8mRYQHplr9h6t/5+5z2alGolVqVKc6enKKhGacZOME9dns1yZL5Rxjw9KdaMVJwjpKLbSevZc9JGZycTr+p4o2y5IWWhg5Z53fVo0ZvZ2SxdZUZUIwvGU9ONRy4PJouK5+ctfNP0MvaPuRKEzC47H2dTsRfeaXoZ+0fciTOTlTu9SpRUa1loTwAMCkAAAAAAAAAAAAAAAAAAAAAAAAi85OLT3w/qRKI+Uj0tD2c++i9c5eLT3w76KK+Uj0tD2c++jVcp9yd89dvkkcyuKe/U7UT5AZlcU9+p2onyynwIkq8yXcAA7MwAAARmcnE6/qeKJMjM5OJ1/U8Ucz4X2OocS7nKZhcdj7Op2IvvNL0MvaPuxKEzC47H2dTsRfOaXop+v/AGxI1yvJc+f4OgABibgAAAAAAAAAAAAAAAAAAAAAAAEPnPxd+tDtKM+Uj0tD2c++i8c6OL+/HxKO+Uj0tD2c++jZcryTvnrsSOZXFPfqdqJ8gMyuKe/U7UT5XT4ESVeZLuAAdmYAAAIzOTidf1PFEmRecnE6/qPtRzPhfY6hxLucrmFx2Ps6nYi980X5lT1o90ojMPjsfZ1OxF7Zo8Gpvh2MjXKfctfPXY6MAGJQAAAAAAAAAAAAAAAAAAAAAAAAQ2c6+jv1odpWuWsgUsVUhUqynampJwi9FTT12b2rZyFm5yq+Gn0OD/Ol4nDYiVovp1FVFKULPUirtxndaHgo0owioQjGEYq0YxSSS6EZnhyplOnhYqU1KTk9GEYJOUny2u1qXK2zxU85sO+EqtPolTlLuaRu5xTs2YKE2rpMmwR0cuYV/wC/Tj678n3rG6nlPDy4NfDy3Vab8T3Mn1PHFrej1g8s8pUI7a9Bb6sF4ml5ZwvJXpS9San3bnuZLezxRb3IkD5KKaaaTT1NNXTXMRU84aCvo+Vn6tKavuc0l+JtyZleniJShGM4Tik3Caim4P6y0W01fVtPFOLdkzp05pXsbcmZt0KNf9ppaULwlHyaacE5bWuVbNmwsXNHgVPWj3TkMLLU1zPtOyzSXzU39+3wjH9TCslGDSNqMnKomyfABIXAAAAAAAAAAAAAAAAAAAAAAAAEdl2Glhqi6FL+GSfgV5ipa0ubtZZ2IpacJR+1Fx+KsVhi4OM2pKzWprma1NfFFWGe9EWKW1M4POGvp4qa5KajTjvaU5v80V7pHHV5UzfjVnKpCbpzlZzTjpQk0kr2umnZLY+ohq2QMVC9oU582hUV2t01HtM6lOeZuxtTq08qVyOPjRvqYHER4WHxHu0/Kdy5pdOottKut9Cqv7TJxa6GyknuZ7IJWWpbFyGRrhJ6rU673Yes/wC02wpVXwcPiXvpSh3rCz0DklvZ8M8LV8nWpVFyTjCXTCbUWupuMvdN9PJeKlspRh7SpFdzSJHCZv2lGVapp6MlJU6cXGOlF3Wk3rlZq/IaQpTumkZTq07NNnQ4eVpb9R3ua0bUL/anJ9i8DgaSvJb7llZIoOnQhBqzteS5pSd2vxN8S/22J8KrybPcACMuAAAAAAAAAAAAAAAAAAAAAAAABzOcGbn7S1VpVPJ1ErNSvoVFzTS2PpXwZ0wB1GTi77PKuvoyqsVgMTQv5ahUil9eEXUhbnur6PWaE7luHmq4KlU4dKnL1oRl2o3hiJR4tv2J61CnKzprLrva8Xu177X7WKtBZMsiYV/7FPqjbsMf9Awn7mPxl+pr6mOjJ/Sy1RXALH/+fwn7mPxl+plHIeFX+xT61ftHqY6MellqitTPD4etWfzNCrU12UtBxgne2ubsizqWT6MOBSpx6Ywin2HrM54iT4dn5+am9HDwi71Fm0W1Lzba/DRyOQM15U5+WxE1KS1wpQv5ON+WV+FL8F06jrgCcplLN0S9krJfT81AAByAAAAAAAAAAAAAAAAAAAAAAAAAAAAAAAAAAAAAAAAAAAAAAAAAAAAAAAAAf//Z;container=0;fontColor=#000000;strokeColor=default;" parent="504" vertex="1">
                    <mxGeometry x="190" y="45" width="140" height="140" as="geometry"/>
                </mxCell>
            </root>
        </mxGraphModel>
    </diagram>
</mxfile>